<?xml version="1.0" encoding="UTF-8"?>
<svg id="Capa_2" data-name="Capa 2" xmlns="http://www.w3.org/2000/svg" viewBox="0 0 18.54 18.79">
  <defs>
    <style>
      .cls-1 {
        fill: #fecf71;
      }

      .cls-2 {
        fill: #f9da90;
      }

      .cls-3 {
        fill: #f4e7cb;
      }

      .cls-4 {
        fill: #f8b03d;
      }

      .cls-5 {
        fill: #fdf1b1;
      }

      .cls-6 {
        fill: #ffd87c;
      }

      .cls-7 {
        fill: #fcf5b6;
      }

      .cls-8 {
        fill: #fcc558;
      }

      .cls-9 {
        fill: #fcc153;
      }

      .cls-10 {
        fill: #ffe78d;
      }

      .cls-11 {
        fill: #fddd8e;
      }

      .cls-12 {
        fill: #fcce6e;
      }

      .cls-13 {
        fill: #ef9d34;
      }

      .cls-14 {
        fill: #fed882;
      }

      .cls-15 {
        fill: #fedc84;
      }

      .cls-16 {
        fill: #ffde85;
      }

      .cls-17 {
        fill: #fdfae0;
      }

      .cls-18 {
        fill: #feea9f;
      }

      .cls-19 {
        fill: #f8c054;
      }

      .cls-20 {
        fill: #f6b448;
      }

      .cls-21 {
        fill: #fecd61;
      }

      .cls-22 {
        fill: #fede8f;
      }

      .cls-23 {
        fill: #ffd36d;
      }

      .cls-24 {
        fill: #f7ba4c;
      }

      .cls-25 {
        fill: #fdc85b;
      }

      .cls-26 {
        fill: #efb644;
      }

      .cls-27 {
        fill: #f9b243;
      }

      .cls-28 {
        fill: #fbbc53;
      }

      .cls-29 {
        fill: #f9d889;
      }

      .cls-30 {
        fill: #fedd89;
      }

      .cls-31 {
        fill: #fdc95c;
      }

      .cls-32 {
        fill: #fab648;
      }

      .cls-33 {
        fill: #fede80;
      }

      .cls-34 {
        fill: #f8d789;
      }

      .cls-35 {
        fill: #ffe696;
      }

      .cls-36 {
        fill: #facf7f;
      }

      .cls-37 {
        fill: #fbc762;
      }

      .cls-38 {
        fill: #f1a738;
      }

      .cls-39 {
        fill: #fef1b0;
      }

      .cls-40 {
        fill: #f3a935;
      }

      .cls-41 {
        fill: #f9f0d2;
      }

      .cls-42 {
        fill: #fbce66;
      }

      .cls-43 {
        fill: #ffd572;
      }

      .cls-44 {
        fill: #d99819;
      }

      .cls-45 {
        fill: #f9b343;
      }

      .cls-46 {
        fill: #edb24d;
      }

      .cls-47 {
        fill: #f5c057;
      }

      .cls-48 {
        fill: #dc941b;
      }

      .cls-49 {
        fill: #f5b040;
      }

      .cls-50 {
        fill: #fee69b;
      }

      .cls-51 {
        fill: #fedf8f;
      }

      .cls-52 {
        fill: #f9b146;
      }

      .cls-53 {
        fill: #f5b64a;
      }

      .cls-54 {
        fill: #f8b948;
      }

      .cls-55 {
        fill: #e1a93e;
      }

      .cls-56 {
        fill: #fcc257;
      }

      .cls-57 {
        fill: #fece67;
      }

      .cls-58 {
        fill: #f9b749;
      }

      .cls-59 {
        fill: #fcf4c0;
      }

      .cls-60 {
        fill: #f0f4e1;
      }

      .cls-61 {
        fill: #fee59c;
      }

      .cls-62 {
        fill: #fcfadf;
      }

      .cls-63 {
        fill: #fee18e;
      }

      .cls-64 {
        fill: #fdd98d;
      }

      .cls-65 {
        fill: #fbbc51;
      }

      .cls-66 {
        fill: #faf6c3;
      }

      .cls-67 {
        fill: #f6c357;
      }

      .cls-68 {
        fill: #ffd778;
      }

      .cls-69 {
        fill: #fcc354;
      }

      .cls-70 {
        fill: #ffe592;
      }

      .cls-71 {
        fill: #ffeca1;
      }

      .cls-72 {
        fill: #e9a63a;
      }

      .cls-73 {
        fill: #fbbb49;
      }

      .cls-74 {
        fill: #f8ad49;
      }

      .cls-75 {
        fill: #fbfaee;
      }

      .cls-76 {
        fill: #f7a93a;
      }

      .cls-77 {
        fill: #fef5ab;
      }

      .cls-78 {
        fill: #feda8a;
      }

      .cls-79 {
        fill: #ffeca0;
      }

      .cls-80 {
        fill: #fece68;
      }

      .cls-81 {
        fill: #ffdb82;
      }

      .cls-82 {
        fill: #ef9b27;
      }

      .cls-83 {
        fill: #ffe69d;
      }

      .cls-84 {
        fill: #fee18a;
      }

      .cls-85 {
        fill: #efc874;
      }

      .cls-86 {
        fill: #f6b045;
      }

      .cls-87 {
        fill: #fed477;
      }

      .cls-88 {
        fill: #fbc962;
      }

      .cls-89 {
        fill: #ffe79a;
      }

      .cls-90 {
        fill: #f8c860;
      }

      .cls-91 {
        fill: #efad38;
      }

      .cls-92 {
        fill: #fedf82;
      }

      .cls-93 {
        fill: #edb344;
      }

      .cls-94 {
        fill: #f2a13d;
      }

      .cls-95 {
        fill: #e3a53b;
      }

      .cls-96 {
        fill: #fbbb4f;
      }

      .cls-97 {
        fill: #e4ae45;
      }

      .cls-98 {
        fill: #ffeca5;
      }

      .cls-99 {
        fill: #ffe698;
      }

      .cls-100 {
        fill: #ffd67b;
      }

      .cls-101 {
        fill: #fcc154;
      }

      .cls-102 {
        fill: #ffeea3;
      }

      .cls-103 {
        fill: #ffeda6;
      }

      .cls-104 {
        fill: #fab84d;
      }

      .cls-105 {
        fill: #fdcc6b;
      }

      .cls-106 {
        fill: #fbbb4e;
      }

      .cls-107 {
        fill: #fcd885;
      }

      .cls-108 {
        fill: #d8b565;
      }

      .cls-109 {
        fill: #ffea9a;
      }

      .cls-110 {
        fill: #f6b33f;
      }

      .cls-111 {
        fill: #f7b346;
      }

      .cls-112 {
        fill: #fee397;
      }

      .cls-113 {
        fill: #fbda91;
      }

      .cls-114 {
        fill: #feeaa2;
      }

      .cls-115 {
        fill: #ffd779;
      }

      .cls-116 {
        fill: #f6a439;
      }

      .cls-117 {
        fill: #fcd075;
      }

      .cls-118 {
        fill: #c89221;
      }

      .cls-119 {
        fill: #ffdc86;
      }

      .cls-120 {
        fill: #fbf5d4;
      }

      .cls-121 {
        fill: #ffd574;
      }

      .cls-122 {
        fill: #feebab;
      }

      .cls-123 {
        fill: #faba4a;
      }

      .cls-124 {
        fill: #d6d2aa;
      }

      .cls-125 {
        fill: #ffeb9d;
      }

      .cls-126 {
        fill: #ebedbe;
      }

      .cls-127 {
        fill: #fdda87;
      }

      .cls-128 {
        fill: #f4a034;
      }

      .cls-129 {
        fill: #fee093;
      }

      .cls-130 {
        fill: #fbbe54;
      }

      .cls-131 {
        fill: #f3c356;
      }

      .cls-132 {
        fill: #fdca5d;
      }

      .cls-133 {
        fill: #ffdf88;
      }

      .cls-134 {
        fill: #efaa3d;
      }

      .cls-135 {
        fill: #fbbc4c;
      }

      .cls-136 {
        fill: #fcd072;
      }

      .cls-137 {
        fill: #fcd47f;
      }

      .cls-138 {
        fill: #fed36d;
      }

      .cls-139 {
        fill: #fee395;
      }

      .cls-140 {
        fill: #fefae3;
      }

      .cls-141 {
        fill: #fed26b;
      }

      .cls-142 {
        fill: #faf4c8;
      }

      .cls-143 {
        fill: #fcc965;
      }

      .cls-144 {
        fill: #ffd77e;
      }

      .cls-145 {
        fill: #f9d781;
      }

      .cls-146 {
        fill: #ffe997;
      }

      .cls-147 {
        fill: #f9b345;
      }

      .cls-148 {
        fill: #d9d8b9;
      }

      .cls-149 {
        fill: #e58d29;
      }

      .cls-150 {
        fill: #f7d486;
      }

      .cls-151 {
        fill: #fff0b3;
      }

      .cls-152 {
        fill: #f9cc6d;
      }

      .cls-153 {
        fill: #fede90;
      }

      .cls-154 {
        fill: #feeda1;
      }

      .cls-155 {
        fill: #fab84c;
      }
    </style>
  </defs>
  <g id="Capa_1-2" data-name="Capa 1">
    <path class="cls-112" d="M6.97,5.55c0-.26.08-.5.12-.75.17-.94.34-1.88.51-2.82.17-.02.32-.07.45-.19.04-.05.12-.06.17-.02.13.1.3.09.44.18.07.1.14.17.27.18.08,0,.16.04.22.1.03.06-.01.13.05.18.04.05.11.07.14.13.08.16.01.3-.04.44-.03.08-.05.13.05.17.1.05.13.14.1.25-.03.13-.13.14-.23.16-.2.04-.34-.08-.46-.21-.07-.07-.14-.13-.28-.08.07.11.18.19.16.33.04.18-.05.23-.2.21-.09-.02-.19-.02-.26-.07-.13-.09-.26-.14-.39-.06.06.02.17.03.19.15,0,.1-.05.14-.1.14.29-.11.49.17.74.27.05.02.08.08.07.14-.02.19.05.35.13.52.1.2.02.39-.13.45.09,0,.17.04.16.15-.01.11-.1.15-.2.15-.18,0-.35-.07-.51-.13-.14-.06-.29-.09-.49-.02.22.14.35.34.54.46.1.06.22.07.34.05.09-.02.18-.04.27,0,.1.04.24.06.24.21,0,.14-.13.15-.2.17.34-.25.65.05.99.1.11.02.15.13.11.24-.06.17-.19.12-.31.1-.14,0-.26-.1-.4-.09,0,0,0,0,.01,0,.16,0,.27.06.28.23.02.18-.13.19-.26.22-.14.03-.27.02-.4-.02-.11-.04-.23-.02-.33-.08-.05-.03-.08,0-.12.02-.15.12-.3.14-.43-.04-.05-.06-.12-.09-.2-.12-.04,0-.08-.02-.11-.04-.03-.02-.07-.03-.11-.04-.02,0-.04-.01-.06-.02-.07-.09-.2-.07-.28-.15-.06-.11-.04-.25-.13-.35,0-.02,0-.04.01-.06.03-.05.09-.08.12-.13.1-.13.07-.34-.08-.38-.13-.04-.16-.14-.23-.22Z"/>
    <path class="cls-51" d="M15.53,9.25c-.25.42-.56.79-.84,1.18-.14-.06-.28-.14-.45-.09-.09-.05-.21-.05-.24-.19.03-.09.12-.07.18-.11.04-.02.09-.01.11-.05,0,0-.03-.02-.05-.03-.18-.11-.4-.02-.6-.17.03.17.05.27.19.29.05.12.17.13.26.19.17.1.35.19.42.4-.09.18-.21.26-.42.18-.27-.1-.06.16-.14.2,0,0,0,0,0,0,.26-.04.44-.2.62-.37.07,0,.11.05.15.09,0,.01,0,.02,0,.04.02.04.01.1.08.11.01,0,.03.01.04.02,0,.19-.05.22-.3.16-.03,0-.06,0-.08,0,.02,0,.04-.01.07,0,.04,0,.07.03.11.03.09.01.18.03.21.13.03.11-.05.16-.13.21-.02.02-.05.04-.07.06-.24.03-.48.04-.73.02-.05,0-.11-.01-.16-.04q-.24-.12-.34.13s-.06.03-.09.05c-.02.01-.04.01-.06.01-.11-.03-.21-.07-.23-.2-.02-.09-.1-.09-.17-.1-.04,0-.07-.03-.09-.06-.18-.16-.06-.27.06-.39.05-.03.1-.05.16-.06.12,0,.26-.02.34.11.04-.14-.06-.21-.13-.31-.04-.1-.13-.17-.18-.26,0-.01-.02-.04-.02-.04-.22.09-.31-.14-.46-.19s-.31.04-.47.07c-.02,0-.04,0-.07,0-.03,0-.07-.01-.09-.03-.06-.06-.08-.15-.02-.21.14-.16.04-.25-.08-.34-.08-.06-.14-.12-.1-.23.05-.12.14-.09.23-.08.2.18.44.25.67.26-.14.04-.29-.07-.45-.1-.07-.01-.14-.08-.12-.17.08-.24.3-.24.49-.3-.03.01-.06,0-.09.01-.04.02-.08.03-.12.05-.2.08-.41.1-.61.05-.16-.03-.21.03-.23.16-.06.09-.14.09-.22.02-.08-.13-.16-.25-.33-.09-.05.04-.11.02-.17.02-.17,0-.33-.1-.51-.08-.08.01-.13-.06-.17-.13-.04-.07-.04-.17-.13-.21-.11-.07-.29-.1-.2-.3.12-.03.24-.04.37-.03.06.07.07.26.24.11.02,0,.04-.02.07-.01.17.04.32.09.48-.06.09-.09.15-.04.24.1,0-.13.11-.18.19-.24.27-.14.41-.12.57.1-.05-.14-.16-.17-.22-.25-.08-.08-.13-.16-.06-.26.07-.11.16-.08.27-.06.13.03.23.16.38.15.02,0,.04,0,.06-.01.1-.02.21-.07.31,0,.08.2.19.29.48.22.23-.05.34.16.52.18.06,0,.06.13,0,.15-.11.04-.23.14-.36.05.06.05.13.04.2.01.11-.04.22-.06.34-.06.1,0,.18,0,.25-.09.1-.12.21-.09.31.01.26.26.38.27.69.08.06,0,.12-.02.18-.06.02-.01.04-.02.06-.03.13-.03.23.09.35.1.06.08.03.14-.02.21-.07.09-.12.2-.12.32Z"/>
    <path class="cls-139" d="M13.39,11.6c-.04-.11-.11-.22,0-.31.1-.08.25-.06.32,0,.19.17.4.15.62.14.08,0,.17.01.25.02.19.02.36-.17.56-.05.26.41.51.82.77,1.23.03.05.05.11.07.17.02.1.06.21-.06.31.12-.02.23-.01.29.09.33.4.52.88.79,1.32.04.06.07.14.1.21-.05.13.06.29-.07.41-.02.01-.05.02-.07.02-.03,0-.05,0-.07-.02-.07-.06-.09-.14-.12-.22-.02-.09-.08-.11-.17-.11-.15,0-.29-.01-.36-.19-.04-.1-.15-.1-.24-.15-.2-.11-.36-.26-.37-.51,0-.08.06-.1.1-.15-.13-.09-.15-.29-.32-.36-.15-.06-.27-.15-.38-.28-.08-.1-.18-.12-.23.04-.04.06-.1.06-.16.05-.02,0-.05,0-.07,0-.07,0-.11-.03-.15-.09-.02-.04-.04-.08-.05-.13,0-.09-.03-.15-.15-.16-.08,0-.17-.03-.22-.11-.04-.33-.22-.58-.41-.83-.08-.11-.2-.19-.2-.34Z"/>
    <path class="cls-27" d="M10.31,14.48c-.14.15-.28.3-.42.45-.15.05-.26.11-.36.26-.1.13-.28.27-.5.27-.14.05-.29.03-.41.15-.07.07-.18.02-.27-.06-.06-.06-.11-.13-.15-.2-.08-.13-.25-.21-.23-.41.02-.18.08-.27.24-.19.29.14.55-.02.81-.04,0,0,0-.01,0-.01-.18-.08-.35-.04-.52,0-.12.03-.24.03-.37.04-.16,0-.26-.06-.26-.23,0-.09-.04-.14-.14-.14-.06,0-.11-.04-.17-.07-.25-.11-.27-.25-.07-.42.08-.07.13-.15.16-.24.2-.1.22-.08.27.17.15.15.31.25.53.2.14-.04.2.12.31.17.22.09.43.17.67.19-.09-.02-.18-.05-.27-.05-.13,0-.23-.05-.27-.17-.05-.13-.14-.18-.26-.19-.17,0-.33-.11-.52-.05-.1.03-.17-.06-.22-.14.02-.1,0-.18-.09-.25-.06-.05-.13-.1-.13-.2.08-.37.21-.42.52-.24.09.05.18.13.29.03.05-.09.09-.19.18-.25.02,0,.04,0,.06-.01.1,0,.14-.08.22-.13.06-.03.12-.03.18.02.06.07.09.15.03.24-.02.02,0,0-.01.02-.01,0-.02.02-.03.03,0,0,.01,0,.02-.02.16-.04.33-.02.5-.03.14,0,.14.19.28.21.09.05.17.11.24.19.11.14.2.28.31.42,0,.1-.02.2,0,.3.02.11-.04.17-.14.21-.09.03-.17.01-.21-.08-.04-.12-.17-.11-.21-.16.16.08.32.21.42.42Z"/>
    <path class="cls-121" d="M2.92,7.66c.43-.18.87-.33,1.32-.47.15-.01.34-.15.4.14,0,.04.06.03.1.02.22-.09.31.04.36.23.01.08.03.14.14.1.1-.04.19,0,.26.08.05.11.17.19.14.33-.2.22-.41.39-.73.23-.07-.04-.13-.03-.17.05-.07.16-.22.17-.36.15.05.06.08.13.02.2-.17.12-.34.18-.55.12-.22-.06-.31.04-.23.27.05.15.07.29-.02.43-.22.12-.48.15-.7.07-.15-.05-.24-.25-.34-.4-.04-.07.02-.15.11-.17.07-.02.14-.03.1-.13.02-.18.08-.34.28-.4.14-.04.15-.16.11-.28-.03-.09-.09-.18-.17-.24-.11-.08-.13-.18-.07-.3Z"/>
    <path class="cls-99" d="M17.61,6.23c-.04.07-.09.14-.13.21-.04.04-.12.02-.15.06-.22.28-.44.12-.65,0-.14-.07-.31-.09-.44-.2-.03-.03-.07-.01-.11,0-.15.06-.29,0-.43-.01-.12-.02-.19.02-.23.13-.04.03-.08.03-.13.04-.13-.02-.24-.06-.32-.19-.1-.15-.2-.16-.3-.02-.11.15-.21.13-.36.05-.22-.12-.41-.32-.69-.26,0,.24-.13.34-.42.31-.06,0-.12-.02-.17-.04-.27-.15-.3-.46-.05-.64.06-.04.12-.1.18-.14.06-.04.13-.09.19-.04.28.18.53.08.78-.06.02-.01.05,0,.07,0,.03,0,.07.01.1.03.2.15.51.06.56-.18.03-.13.08-.18.22-.17.15,0,.3-.02.46.01.13.02.24.07.28.2.05.13.15.16.28.16.13,0,.24.03.35.1.12.08.24.16.4.03.07-.05.21-.03.26.03.17.18.41.31.45.58Z"/>
    <path class="cls-114" d="M17.61,6.23c-.22-.05-.3-.27-.45-.4-.07-.06-.12-.11-.21-.12-.03.08.1.12.03.19-.05.05-.13.04-.17,0-.3-.23-.67-.27-1.01-.38-.09-.03-.17-.03-.09-.16.05-.09-.03-.11-.09-.11-.18,0-.35-.02-.53-.01-.13,0-.11.11-.06.18.04.06.09.1.02.18-.06.07-.11.03-.16,0-.05-.04-.1-.01-.15.02-.15.1-.29.08-.4-.07-.02-.13.05-.21.17-.23.22-.03.34-.19.48-.33.13-.03.26-.06.4-.04.2,0,.41-.02.61-.05.1,0,.19.02.29-.03.06-.03.15-.03.2.02.14.13.31.1.47.09.08.02.16-.04.24,0,.16.14.3.16.48,0,.16-.14.37-.03.5.22,0,.06-.02.11-.02.17-.16.29-.32.59-.54.85Z"/>
    <path class="cls-122" d="M9.98,2.79c.09.12.22.21.26.36.02.09.07.16.07.25,0,.03.02.07.03.1.07.25.24.47.16.75-.02.08.05.09.09.1.17.06.33.06.48-.04.14.1.22.23.29.38,0,.21.15.35.23.52.06.14.1.25.06.4-.06.12-.21.12-.28.22-.13.05-.19-.05-.26-.13-.06-.07-.13-.18-.22-.13-.09.05-.2.13-.18.26.02.14-.06.19-.17.23-.07,0-.13-.01-.15-.08-.02-.12-.11-.21-.15-.33-.02-.08-.01-.16-.02-.25,0-.03.02-.06.05-.09.03-.02.03-.03,0-.05-.03-.02-.04-.04-.05-.07,0-.19-.04-.34-.25-.4-.15-.13-.19-.29-.09-.47.04-.06.04-.13.03-.2,0-.07-.06-.13-.03-.21.01-.13.02-.27.06-.4.04-.12.01-.26-.06-.39-.1-.18-.04-.31.12-.36Z"/>
    <path class="cls-52" d="M6.07,16.51c0-.25,0-.49,0-.74-.02-.13.05-.16.16-.16.15.28.44.21.67.29.21.07.43-.01.63.09.25.13.29.18.22.48-.02.03-.07.05-.07.11-.03.3-.13.36-.42.28.17.03.27.18.41.26.06.03.08.09.05.16-.02.02-.03.03-.05.05-.24.05-.37.26-.57.37-.21.09-.39.04-.55-.1-.17-.24-.21-.48-.05-.74.03-.05.03-.1,0-.16-.03-.1,0-.18.1-.27-.19.1-.34.23-.53.1Z"/>
    <path class="cls-80" d="M2.92,7.66c.05.14.17.26.27.33.27.18.06.38.06.56,0,.06-.08.09-.15.09-.17-.01-.23.09-.27.22-.15.08-.2-.13-.33-.11-.09-.07-.19-.13-.31-.15-.19-.02-.29.05-.32.25-.02.15-.09.24-.25.2-.15-.03-.34.05-.41-.17-.01-.07.05-.14,0-.21-.11-.17-.01-.3.1-.42.2-.11.41-.19.63-.24.02,0,.03,0,.05,0,.16.05.31.04.37-.16.17-.1.36-.15.55-.2Z"/>
    <path class="cls-45" d="M5.99,14.68c-.04-.44-.04-.88-.03-1.32,0-.01-.01-.03,0-.04,0-.01,0-.02,0-.02.29.02.32.06.26.33-.02.09.05.14.07.21.11.35.35.54.71.6.12.02.23.05.27.18.04.13.12.13.21.06.12-.09.24-.04.3.06.13.22.28.41.5.55,0,.01-.01.03-.02.04-.04.11.17.15.08.26-.1.11-.24.14-.38.19-.09.03-.18.04-.2.15-.15.09-.35.07-.44-.06-.07-.09-.04-.18.06-.23.09-.05.2-.09.15-.22-.05-.13-.16-.19-.29-.17-.21.02-.41.03-.61-.04-.05-.02-.1-.03-.13-.09,0-.02-.01-.04-.01-.06,0,0,0-.02,0-.03-.1-.11-.16-.29-.37-.26-.05,0-.07-.07-.12-.1Z"/>
    <path class="cls-87" d="M5.14,6.86c.25-.09.49-.18.74-.27.26,0,.51-.08.74-.2.16-.02.33.03.49-.03.17.1.11.31.22.45.05.07-.09.12-.16.15-.07.03-.17,0-.24.07-.25-.01-.52.04-.71-.21-.01-.02,0,0,0,0,.08.07.08.14.01.22-.03.03-.07.06-.08.13.14.02.26.06.26.25,0,.08.11.11.15.18.02.12.16.19.12.33-.13.18-.31.2-.5.14-.05-.02-.08-.05-.12-.09-.04-.11-.09-.21-.24-.2-.07,0-.12-.03-.16-.07-.16-.2-.45-.33-.39-.66.01-.05-.05-.04-.08-.06-.05-.03-.11-.06-.07-.14Z"/>
    <path class="cls-150" d="M16.12,6.2c.3.11.61.2.9.33.12.06.09-.04.12-.06.11-.09.21-.26.34-.02-.36.6-.78,1.18-1.18,1.75-.25.36-.47.73-.76,1.06-.15-.21.03-.35.11-.5-.02-.04-.06-.07-.04-.12.14-.19.29-.37.39-.59.03-.07.07-.14.1-.21.12-.25.27-.47.44-.68.02-.02.05-.03.09-.03,0,0,.02,0,.03-.01.08-.09.2-.16.1-.3-.08-.15-.25-.14-.37-.22-.08-.05-.17-.06-.24-.13-.04-.09-.1-.17-.02-.27Z"/>
    <path class="cls-12" d="M5.14,6.86c.06.04.13.04.2.02.15-.05.19.05.22.16.03.15-.11.09-.17.13.07.12.13.23.2.35.06.1.13.14.26.12.26-.04.34.07.26.3-.16.14-.35.12-.53.11-.05-.05-.11-.11-.16-.16-.04-.04-.05-.07.01-.1,0-.14-.09-.16-.19-.14-.08.02-.15.03-.2-.06-.03-.02-.08-.03-.09-.06-.04-.15-.09-.11-.18-.03-.15.13-.32.07-.3-.11.03-.23-.11-.19-.24-.2.3-.11.6-.22.91-.33Z"/>
    <path class="cls-72" d="M17.36,15.85c-.51-.08-1-.26-1.49-.42-.75-.24-1.5-.51-2.25-.76-.09-.03-.17-.07-.25-.11,0-.02.02-.04.04-.05.03-.01.06-.01.09-.02.07-.03.15-.02.22,0,.02,0,.04,0,.06,0,.3,0,.57.09.81.28.12.1.27.03.4.09.02,0,.04.02.05.03.09.1.2.05.3.02.08,0,.16.02.23.06.25.22.54.14.83.11.02,0,.04.01.06.03.23.22.48.38.8.37.14,0,.21.07.24.2.04.13-.05.16-.15.18Z"/>
    <path class="cls-128" d="M9.04,15.36s.13-.07.14-.11c.04-.16.14-.13.27-.08-.02-.11-.09-.2.04-.28.12-.08.2-.07.31,0,.03.02.07.03.11.04-.54.61-1.08,1.21-1.66,1.78-.14.03-.16-.05-.14-.16.02-.16-.13-.16-.21-.23-.03-.04-.05-.08-.04-.12q.1-.19.28-.07c-.08-.06-.13-.13-.08-.22.06-.09.15-.17.27-.12.2.08.32.02.37-.19.04-.17.24-.13.35-.23Z"/>
    <path class="cls-153" d="M9.11,2.25c-.1-.02-.2-.03-.29,0-.11.04-.17-.06-.23-.12-.07-.06.02-.1.05-.15-.05-.09-.04-.19,0-.28.01-.03.03-.06.06-.08,0,.02-.02.02-.03.02-.02,0-.03.03-.05.04-.13.02-.25-.02-.33-.12-.05-.06-.13-.08-.19-.12-.13-.08-.2-.08-.17.11,0,.04-.03.07-.06.09-.02.01-.04.01-.07.01-.07-.02-.07-.09-.09-.14.05-.28.07-.57.15-.84.12.02.06.16.14.2.16.1.33.08.5.09.29.18.43.5.69.71.15.11.22.29.33.43-.03.06-.08.1-.14.12-.08,0-.16-.04-.24,0Z"/>
    <path class="cls-116" d="M8.25,16.56s-.1.09-.01.14c-.15.21-.32.4-.52.57-.19-.09-.35-.24-.56-.29-.15-.03-.14-.19-.18-.3-.02-.08.07-.06.12-.04.11.04.22.08.32.12.06.02.11,0,.14-.04.03-.05,0-.09-.04-.11-.06-.02-.16-.01-.12-.12.03-.09.12-.08.2-.08.04,0,.08,0,.11.01.05,0,.09-.04.14-.03.12.08.32-.03.4.16Z"/>
    <path class="cls-4" d="M5.11,12.16c-.45-.24-.88-.51-1.29-.81,0-.03,0-.07.01-.1.16-.11.32-.19.52-.07.2.12.46.1.64.26.07.06.13,0,.2,0,.12.05.18.16.28.24.03.1-.02.18-.09.24-.09.08-.16.18-.26.24Z"/>
    <path class="cls-147" d="M3.87,11.31s-.04.03-.05.04c-.54-.29-1.04-.63-1.55-.97-.01-.06-.06-.08-.11-.1-.12-.05-.17-.15-.11-.28.02-.02.03-.03.05-.04.08-.05.17-.09.27-.06.02,0,.04.01.06.02.07.14.17.24.31.3.11.22.3.33.54.32.06,0,.11.02.13.06.08.18.26.21.41.28.08.04.19.03.21.15.03.12-.07.15-.15.2-.03.01-.03.05-.02.08Z"/>
    <path class="cls-130" d="M6.07,16.51c.26-.14.53-.27.85-.21,0,.12-.1.12-.15.15-.11.08-.18.15-.11.3.03.08.06.15-.06.22-.11.07-.15.23-.06.36.03.05.07.08.03.14-.03.07-.1.06-.16.06-.19,0-.23-.12-.23-.27,0-.14-.02-.26-.09-.37,0-.13-.05-.26-.03-.39Z"/>
    <path class="cls-71" d="M8.6,1.56c.12-.03.23-.02.33.11-.26-.03-.21.2-.3.32-.05,0-.11.03-.16,0-.21-.08-.39-.15-.57.08-.06.08-.22,0-.29-.1.01-.09.03-.19.04-.28.03-.07.09-.06.15-.07h0c.13-.03.04-.24.21-.24.12,0,.18.11.28.14.1.03.21.06.31.03Z"/>
    <path class="cls-151" d="M11.57,5.57c-.09-.26-.13-.54-.36-.74.05-.04.1-.09.15-.13.11.14.21.28.32.43.06.09.13.18.2.27.05.09.13-.02.18.02.38-.06.78.06,1.14-.11.05-.02.1-.01.15,0,.1.09.15.11-.02.24-.27.2-.59.13-.87.26-.04.02-.09,0-.14,0-.21-.07-.43-.12-.65-.15-.05,0-.08-.04-.11-.08Z"/>
    <path class="cls-123" d="M10.39,13.83c-.18-.07-.25-.22-.32-.38.09-.21.3-.3.54-.24.19.05.38.12.58.03.06-.03.14,0,.18.07.04.1.08.21.01.31-.05.07-.09.14-.19.16-.04,0-.07,0-.1-.03-.07,0-.14,0-.2.06-.06.03-.14.05-.19.1-.15.16-.25.09-.32-.07Z"/>
    <path class="cls-49" d="M13.24,14.52c-.21-.07-.42-.15-.62-.22-.01-.13-.12-.14-.21-.17-.28-.11-.29-.12-.26-.41-.01-.09.04-.14.11-.18.17,0,.34.03.5-.02.1.02.16.07.16.17-.01.17.08.2.22.21.09,0,.18.04.27.04.28-.02.35.06.36.36-.03.05-.07.09-.12.12-.15-.01-.28-.11-.43-.12.05.06.14.13.03.22Z"/>
    <path class="cls-38" d="M6.64,15.1s-.06,0-.09-.01c-.02.02-.03.03-.05.05-.01.02-.02.05-.02.07,0,.02,0,.04-.01.05-.07.07-.01.13,0,.19.03.04.07.05.1.1.05.09.04.17-.04.23-.11.08-.2.03-.26-.08-.08-.01-.15,0-.2.07-.06-.36-.06-.73-.08-1.09.11-.02.23-.05.34-.04.1,0,.25-.03.19.19-.04.15.17.1.24.19-.02.05-.08.05-.11.08Z"/>
    <path class="cls-40" d="M10.39,13.83c.11.03.21.07.31-.03.05-.05.13,0,.19,0-.16.26-.39.45-.59.67-.07-.04-.13-.08-.22-.06-.1.01-.18.02-.1-.12.04-.07-.04-.09-.09-.1-.09-.03-.18-.05-.26-.08-.05-.02-.11-.03-.12-.09,0-.07.06-.11.11-.13.11-.05.22-.05.32.05.05.05.1.11.16.17.05.05.08.12.17.1.1-.03.05-.11.05-.18,0-.07.03-.13.07-.19Z"/>
    <path class="cls-42" d="M1.32,8.26c.05.13-.11.25,0,.38-.04.09-.09.17-.14.26-.06.02-.12.06-.17.1-.29.1-.58.1-.87,0-.12-.04-.2-.09-.04-.18.18-.11.36-.23.57-.27.16,0,.32,0,.41-.18.07-.06.17-.07.26-.09Z"/>
    <path class="cls-46" d="M17.36,15.85c.12-.22.1-.28-.13-.25-.38.05-.6-.2-.85-.41.11-.15.24-.25.44-.18.03.02.06.04.09.07.01,0,.02,0,.04.01.2.03.35.15.48.3.04.08.09.16.13.24.03.07.11.16.04.23-.06.06-.16.03-.23-.02Z"/>
    <path class="cls-74" d="M6.2,18.36l-.03-.52c-.01-.11,0-.21.11-.28.12-.06.21-.02.31.05.13.1.3.11.42.23.03.04.05.08.05.13-.03.07-.09.12-.16.16-.14.06-.24.17-.36.26-.12.08-.24.13-.34-.04Z"/>
    <path class="cls-134" d="M1.76,10.07c-.25-.15-.51-.28-.73-.48-.08-.1-.26-.15-.2-.34,0-.02.02-.05.03-.07.13-.17.28-.13.43-.03.02.02.04.03.06.05.17.09.28.25.42.38.14.12.13.31.03.48-.01,0-.02,0-.03.01Z"/>
    <path class="cls-32" d="M12.23,13.73s.09.06.09.06c-.13.22.05.19.17.22.1.03.16.12.21.21.05.08-.03.08-.08.08-.51-.17-1.02-.34-1.52-.55.03,0,.07,0,.1,0,.34-.15.68-.28,1.03-.03Z"/>
    <path class="cls-50" d="M9.35,2.19s.08-.06.14-.07c.16.22.36.42.49.67-.06.07-.11.16-.06.23.22.28.13.57.03.86,0,.03,0,.06-.01.09-.11.1-.18.02-.24-.07-.06-.09-.07-.2-.06-.31.01-.13,0-.25-.12-.34-.11-.07-.07-.17.02-.25.15-.11.13-.22-.03-.3-.13-.07-.18-.16-.13-.3,0-.06-.04-.11-.04-.18,0,0,0-.02,0-.03Z"/>
    <path class="cls-142" d="M13.34,5.36c-.42.23-.85.08-1.28.04.79-.13,1.59-.25,2.4-.32.02.02.03.04.03.06,0,.02-.01.04-.02.06-.08.12-.2.19-.35.16-.1-.02-.16.06-.24.1-.11.06-.19-.09-.3-.05-.02,0-.04,0-.06,0-.06-.02-.12-.02-.17-.05Z"/>
    <path class="cls-62" d="M7.8,1.01c0-.11.02-.22.03-.33.01-.05.02-.09.03-.14-.02-.14.03-.28.04-.42,0-.04.03-.07.08-.05.21.28.42.57.63.85-.01.11-.08.08-.15.07-.22-.02-.44-.08-.66.02Z"/>
    <path class="cls-59" d="M11.07,4.32c0,.07.06.18-.03.21-.1.04-.23.09-.33.02-.1-.08-.2-.09-.32-.07-.08.01-.17-.03-.2-.12-.04-.1.06-.11.12-.15.18-.12.09-.26.01-.39-.05-.09-.17-.14-.14-.27.1-.04.16.03.22.07.07.05.13.11.22.09.06.03.09.09.12.14.04.11.09.21.2.27,0,.02.02.03.02.05-.03.04-.07.06-.1.09.03-.03.07-.06.11-.08.05.03.06.09.08.14Z"/>
    <path class="cls-79" d="M6.97,5.55c.37.04.55.24.48.52-.03.13-.1.25-.26.25-.25-.03-.23-.26-.31-.42.01-.12.03-.24.09-.35Z"/>
    <path class="cls-5" d="M14.45,5.15s0-.05,0-.07c.17-.05.35-.07.53-.08-.03.22-.08.41-.38.39-.09,0-.18.1-.27.16-.03,0-.06,0-.09-.01-.08.02-.16.02-.24.01-.09,0-.18-.03-.16-.16.15-.21.42-.1.6-.24h0Z"/>
    <path class="cls-75" d="M17.33,4.69c.36-.06.72-.12,1.08-.17.11-.02.16.03.12.14-.04.12-.08.23-.17.32-.04.03-.1.05-.12.01-.11-.21-.27-.08-.41-.07-.02,0-.05,0-.07,0-.1-.02-.21-.03-.31-.05-.09-.02-.16-.06-.11-.17Z"/>
    <path class="cls-13" d="M6.97,17.91c-.19.06-.3-.1-.43-.17-.2-.12-.27-.11-.37.11-.01-.1-.02-.2-.03-.29.02-.16.11-.18.24-.1.06,0,.12.02.18.02.16.08.31.24.51.08.02-.01.05-.01.07,0,.07.24.05.29-.17.35Z"/>
    <path class="cls-104" d="M5.11,12.16c-.11-.15-.17-.28.12-.28.09,0,.15-.07.18-.16.11-.06.22,0,.2.09-.03.18.13.31.07.48-.03.08.07.11.06.18,0,.02-.02.04-.04.05-.21-.11-.42-.21-.6-.38Z"/>
    <path class="cls-39" d="M16.94,5.1s-.02,0-.02,0c-.18.15-.32.13-.46-.08-.1-.16-.29,0-.43-.06.02-.13.14-.06.2-.11.2-.07.41-.08.62-.09.28.1.29.14.09.34Z"/>
    <path class="cls-53" d="M5.75,12.58s-.03-.02-.05-.04c0,0,0-.02,0-.02,0-.13-.07-.25,0-.38.01-.02.03-.03.05-.04.08,0,.15-.03.16-.13,0-.15.1-.22.24-.23.02,0,.05,0,.07,0,.02,0,.05.01.06.03-.05.19.21.37.02.56,0,.18-.06.35-.13.52-.03.06-.08.08-.15.07-.04-.01-.06-.03-.08-.07.04-.18-.02-.28-.21-.27Z"/>
    <path class="cls-67" d="M.13,8.99c.04-.05.07-.16.15-.1.24.17.45.02.68-.02.01.02.02.03.03.05-.02.11-.05.21-.09.31h0c-.08.04.03.26-.17.17-.22-.11-.42-.25-.6-.41Z"/>
    <path class="cls-107" d="M15.15,11.4s-.02,0-.02,0c-.16.23-.35.15-.54.05.36-.22-.04-.23-.09-.34-.01-.01-.01-.02,0-.03,0,0,.01-.01.01-.01.12-.04.26-.02.35-.13.1.15.2.31.29.46Z"/>
    <path class="cls-66" d="M16.94,5.1c.11-.15-.06-.23-.09-.34.09-.03.19-.05.29-.04.23.05.43.18.68.14.02,0,.03,0,.05,0,.04-.02.07-.02.1.01,0,.06-.03.09-.08.09-.13.01-.23.07-.34.12-.12.06-.24.1-.36,0-.08,0-.16,0-.23.01Z"/>
    <path class="cls-94" d="M6.2,18.36c.14.02.28-.03.37-.12.1-.09.21-.11.33-.1-.15.23-.36.4-.54.6-.09.1-.13.04-.15-.06-.02-.11-.04-.21-.02-.32Z"/>
    <path class="cls-107" d="M14.73,10.77c-.06,0-.12-.02-.18-.03-.06.02-.08-.01-.08-.06-.19-.15-.34-.37-.61-.41-.07-.01-.06-.1-.05-.16.1-.12.14-.12.23.03.09.04.17.09.26.13.15,0,.26.09.36.2-.06.12.09.18.07.29Z"/>
    <path class="cls-32" d="M13.24,14.52c-.04-.12-.15-.14-.25-.18-.08-.03-.14-.09-.12-.18.03-.11.13-.05.19-.04.19.04.36.14.53.22.06.17-.14.12-.17.2-.02,0-.04,0-.05,0-.04-.01-.08-.03-.13-.04Z"/>
    <path class="cls-131" d="M2.37,7.86c.03.07.06.14.08.21.02.06.1.14,0,.2-.08.04-.16.03-.23-.03-.08-.07-.17-.15-.26-.22.13-.08.26-.13.41-.16Z"/>
    <path class="cls-61" d="M7.8,1.01c.14-.19.32-.22.52-.1.09.05.19.04.29.01.03.03.05.06.08.1-.07.16-.16.07-.24.02-.22.1-.44.05-.65-.02Z"/>
    <path class="cls-116" d="M7.12,17.57s-.03,0-.05,0c.05-.06.12-.11.17-.2.09-.18.28-.08.43-.05-.09.15-.2.27-.34.37-.13.06-.16-.04-.21-.12Z"/>
    <path class="cls-108" d="M6.65,6.48c-.24.13-.5.2-.77.11.28-.11.57-.23.85-.34.09.12.03.18-.08.22Z"/>
    <path class="cls-145" d="M8.45,1.03c.08,0,.16.02.24-.02.16.23.35.43.47.68-.33-.13-.47-.45-.71-.66Z"/>
    <path class="cls-41" d="M17.95,4.88s-.06-.01-.09-.02c.26-.15.28-.15.5.12-.05.14-.1.28-.21.39-.02-.04-.05-.07-.07-.11,0-.15-.07-.27-.13-.39Z"/>
    <path class="cls-29" d="M16.2,13.19c-.18.02-.36.07-.55-.07.17-.06.27-.18.32-.33.12.11.2.24.23.4Z"/>
    <path class="cls-140" d="M10.63,3.7c-.03.07-.03.16-.11.23-.11-.13-.22-.26-.33-.39,0-.03,0-.06.01-.09.07-.07.15-.1.23-.01.08.08.18.14.2.27Z"/>
    <path class="cls-20" d="M6.38,17.45c-.1-.02-.18.02-.24.1-.02-.22-.03-.44-.05-.66.08.07.15.15.23.22.04.03.08.07.02.11-.18.11-.03.16.03.23Z"/>
    <path class="cls-134" d="M2.1,10.02c.05.08.02.21.16.23.07.01.03.08,0,.13-.18-.09-.36-.19-.51-.32h0c.08-.14.17-.22.31-.08,0,.01,0,.02.01.04Z"/>
    <path class="cls-120" d="M17.01,15.09c-.01-.13-.07-.28.09-.37.08.16.16.31.23.47-.14.08-.22-.04-.32-.1Z"/>
    <path class="cls-126" d="M16.22,4.85c-.07.04-.13.08-.2.11-.21.08-.42.01-.64,0,.28-.06.55-.12.84-.11Z"/>
    <path class="cls-55" d="M5.75,12.58c.11-.04.16-.13.21-.24.04.16.13.3.03.46-.03.03-.06.02-.08-.01,0-.11-.1-.15-.16-.21Z"/>
    <path class="cls-85" d="M6.65,6.48c.05-.07.07-.14.08-.22.02-.01.03-.03.05-.04.01,0,.02,0,.03,0,.14,0,.26.02.27.19-.12.18-.29.05-.44.07Z"/>
    <path class="cls-67" d="M1.07,8.35c.1.11.12.17-.07.21-.12.02-.23.06-.34-.02.12-.08.26-.14.41-.18Z"/>
    <path class="cls-95" d="M5.92,12.79s.05,0,.08.01c.01.02.02.04.04.05.03.03.05.07.08.1.04.06.11.09.13.15,0,.02,0,.05,0,.07,0,.05-.05.08-.09.11-.05.04-.12,0-.17.03,0,.01-.01.03-.02.04-.05-.19-.03-.38-.04-.57Z"/>
    <path class="cls-35" d="M14.66,10.48c-.15-.01-.27-.09-.36-.2.13-.1.3-.04.4.15-.01.01-.02.03-.04.04Z"/>
    <path class="cls-149" d="M7.12,17.57c.07.04.14.08.21.12-.05.14-.19.19-.27.3-.03-.02-.06-.05-.09-.07.16-.07.12-.22.14-.35Z"/>
    <path class="cls-112" d="M6.88,5.9c.07.1.17.15.34.12-.11.12-.14.21-.03.3h0c-.2.02-.27-.05-.33-.3,0-.01,0-.02,0-.03,0-.03.02-.06.02-.09Z"/>
    <path class="cls-133" d="M17.01,15.09c.11.03.22.07.32.1.05.06.07.13.09.2-.18-.06-.33-.18-.48-.3.02,0,.04,0,.06,0Z"/>
    <path class="cls-41" d="M17.81,4.86c-.25.05-.47-.02-.68-.14.06-.04.12-.04.19-.02.12.17.32.12.49.16Z"/>
    <path class="cls-3" d="M10.43,3.43c-.08,0-.15,0-.23.01.01-.1.03-.19.04-.29.08.08.18.15.18.28Z"/>
    <path class="cls-93" d="M.73,9.4c.09-.02.12-.11.17-.16-.03.15.08.24.13.36-.11-.05-.22-.11-.3-.19Z"/>
    <path class="cls-60" d="M7.98.07c-.1.14-.08.32-.12.48-.03-.16.01-.32.04-.48.01-.09.06-.07.08,0Z"/>
    <path class="cls-124" d="M10.95,4.11c-.14-.04-.2-.13-.2-.27.09.07.13.18.2.27Z"/>
    <path class="cls-148" d="M11.88,5.39c-.11-.05-.19-.14-.2-.27.09.07.18.14.2.27Z"/>
    <path class="cls-61" d="M7.8,1.63s-.1.05-.15.07c.01-.06.02-.12.03-.18.04.04.08.07.11.11Z"/>
    <path class="cls-85" d="M6.78,6.21c.02-.08.02-.16.08-.22h.02c0,.1.07.2-.08.23h-.02Z"/>
    <path class="cls-139" d="M14.81,10.91c-.09.02-.08-.05-.08-.11.03.04.05.07.08.11Z"/>
    <path class="cls-129" d="M12.34,8.31c-.13,0-.24-.04-.34-.12-.08-.05-.17-.12-.3-.06.12.12.17.3.39.25.05-.01.14.06.05.12-.16.11-.28.3-.51.28,0-.02-.01-.03,0-.04.02-.09.22-.06.15-.18-.05-.1-.17,0-.26,0-.04,0-.07.03-.11.04-.11-.11-.19.03-.29.03-.25,0-.41-.15-.55-.32-.06-.07-.11-.14-.18-.2-.05-.07-.1-.1-.19-.1-.12.01-.23,0-.32-.1-.09-.09-.16-.01-.23.02-.17.08-.3.11-.44-.07-.08-.11-.25-.1-.39-.09-.07,0-.13.03-.18,0,.09.18.28.18.47.18.17,0,.28.06.31.24,0,.02-.01.05-.03.06-.24.08-.48.14-.73.15-.23-.03-.41.17-.66.11-.14-.03-.28-.06-.43-.07-.13-.01-.12-.13-.16-.2-.06-.25-.16-.32-.4-.28-.07.01-.13.02-.2-.01-.02-.01-.03-.03-.04-.05-.04-.13.04-.2.14-.26.09-.05.18-.09.28-.12-.03-.06-.09-.08-.14-.12-.08-.07-.05-.17-.07-.26-.03-.12.06-.13.15-.15.17-.05.21-.18.2-.33.12.01.21.07.25.18.06.1.14.12.23.03.12-.02.21.06.28.14.08.09.17.11.26.08.1-.03-.03-.14.04-.2.1.17.34.08.45.23-.04.12.06.1.11.1.19.02.39-.04.5.13-.08-.02-.15-.09-.15-.21.06-.04.14-.05.12-.15-.02-.08-.07-.08-.14-.08-.1,0-.14-.09-.2-.14,0-.13.05-.18.18-.13.13.04.26.08.39.12.05.12.17.11.26.15.21.08.43.1.64.15.17.04.21-.12.31-.19.22.06.41.18.63.23.06.01.09.1.1.17.03.18.14.2.29.13.22-.09.76.02.92.21.14.16.29.28.48.36.05.1.02.16-.08.21-.03.05-.18-.13-.14.09.02.14-.13.11-.23.11-.1,0-.18-.04-.22-.13-.11.01-.21.02-.3.1Z"/>
    <path class="cls-22" d="M10.91,6.87c-.01.07-.02.14-.03.21-.02.13-.06.18-.21.12-.2-.08-.41-.11-.63-.13-.2-.02-.35-.11-.37-.33.07,0,.18.04.19-.07.01-.1-.1-.1-.17-.12-.15-.04-.3-.08-.44-.13-.11-.04-.21-.04-.31,0-.15.06-.28.03-.42-.11.13-.04.23.04.33,0,.04-.02.1-.03.1-.08,0-.06-.04-.08-.08-.1-.08-.04-.16-.05-.25-.03-.3.08-.52,0-.71-.25-.11-.14-.26-.29-.46-.33-.03,0-.06-.03-.07-.05-.01-.05.03-.07.07-.07.3-.06.6-.2.89.04.05.04.13.06.19.07.08.01.21.05.23-.03.03-.13-.11-.08-.18-.11-.07-.03-.14-.06-.14-.16.01,0,.03-.02.04-.02.09,0,.16.18.25.05.07-.1.04-.24-.02-.35-.04-.07-.1-.12-.11-.2-.03-.17.09-.38-.2-.47-.17-.06-.33-.18-.53-.18-.08,0-.16,0-.23-.03-.05-.02-.17-.03-.11-.13.03-.06.12-.08.18-.03.06.04.12.1.17,0,.04-.08-.07-.09-.11-.12-.07-.05-.14-.09-.26-.17.19,0,.32-.01.44-.09.08-.05.17-.02.22.06.07.09.17.14.27.17.09.03.16.03.15-.09.06-.12.14-.14.24-.05.09.08.07.18-.02.26-.02.01-.04.02-.06.04-.04.03-.11.06-.05.12.04.04.09.03.13,0,.1-.1.18-.19.35-.19.27,0,.48.15.7.27.06.03.08.09.06.16-.03.11-.13.07-.19.08.16.06.18-.11.27-.18.04.09.04.19-.02.26-.11.15-.06.25.07.35.03.05.04.11.11.14.17.06.16.18.11.32.01.02.03.04.04.05.06.04.09.08.02.14-.02.01-.03.03-.05.04-.16.12-.18.24,0,.37.12.08.07.27.2.35.01.02.02.04.03.06.04.22.22.29.37.4.11.08.19.17.02.28Z"/>
    <path class="cls-78" d="M10,4.12c-.05.19-.28.36-.48.37-.05,0-.1,0-.12-.05-.02-.06.03-.08.07-.11.11-.08.24-.1.42-.14-.29-.09-.47-.28-.74-.26-.11,0-.2.03-.19.16,0,.06,0,.12-.07.12-.15,0-.3-.1-.46-.03-.03.01-.06-.07-.04-.09.09-.07-.05-.23.11-.27.04,0,.08-.02.11-.04.05-.03.14-.04.13-.11-.02-.1-.11-.06-.17-.05-.06-.19-.23-.26-.43-.33.13-.07.22-.13.32-.16.16-.04.32-.05.42.14.04.08.11.13.19.16.1.04.22.05.26-.06.05-.12-.07-.15-.16-.18-.09-.03-.18-.05-.23-.16.09-.05.25.04.27-.13.01-.1.08-.2.04-.31-.06-.04-.09-.09-.12-.16-.03-.06-.03-.13-.02-.19.04-.21.15-.09.24-.06h0c.02.08.11.1.16.17-.02.13-.03.23.14.27.16.04.13.21.15.33.02.16-.17.09-.23.17.06.13.19.14.3.18.05.02.1.05.09.12,0,.03-.03.05-.06.06-.15.05-.19.21-.11.37.03.06.08.09.14.12.02.05.05.1.07.15Z"/>
    <path class="cls-127" d="M7.34,6.63c.14.11.1.19-.03.28-.09.06-.24.09-.2.26.02.11.08.18.19.2.1.02.25,0,.24.15-.01.16-.17.08-.26.1-.17.04-.35.08-.44.25-.06.08-.12.08-.19.02-.05-.08-.28-.08-.1-.25,0-.01,0-.02,0-.03,0-.21.19-.33.25-.52.04-.03.09-.06.13-.1.03-.04.06-.07.11-.07.16-.02.29-.04.1-.22-.08-.08,0-.19-.04-.29-.1-.06-.19-.12-.29-.18.03-.07.05-.14.08-.22.09.12.12.3.32.32.13.06.14.18.14.3Z"/>
    <path class="cls-34" d="M9.33,7.11c.09.08.15.26.29.05.04-.06.08,0,.1.04.05.08.1.16.05.26-.02.05-.08.08-.11.04-.27-.29-.65-.16-.97-.28-.06-.02-.17.02-.16-.08,0-.09.11-.07.17-.06.05,0,.11.01.16.02.15.02.31.07.47.02Z"/>
    <path class="cls-129" d="M8.47,6.64c-.09.03-.16.05-.23.07-.13.05-.36-.08-.38-.21,0-.05.02-.09.06-.07.18.08.41-.01.56.21Z"/>
    <path class="cls-127" d="M7.82,6.84c.04.16-.09.11-.15.1-.06,0-.17-.02-.08-.13.02,0,.03,0,.05,0,.05-.03.1-.03.14.02.02,0,.03,0,.05,0Z"/>
    <path class="cls-129" d="M9.1,6.75c-.06.05-.12.09-.15.03-.03-.07.04-.06.08-.05.02,0,.04.01.07.02Z"/>
    <path class="cls-129" d="M8.57,6.76s.03-.05.05-.04c.02.01.03.03.04.05,0,.02,0,.05-.03.04-.02-.01-.04-.04-.05-.05Z"/>
    <path class="cls-129" d="M7.77,6.83s-.09-.01-.14-.02c.03-.03.05-.08.1-.07.04,0,.04.06.04.09Z"/>
    <path class="cls-153" d="M9.13,2.44l.12.16c-.08-.02-.12-.07-.12-.16Z"/>
    <path class="cls-14" d="M8.64,8.23c.14.03.27.03.4-.04.1-.06.21-.04.31,0,.2-.07.39.05.59.06.08,0,.19.06.17.18-.01.12-.09.17-.21.16-.04,0-.08,0-.1.04,0,.13.22.07.2.22.04.12.08.24.15.36.08.13.05.18-.11.19-.13,0-.26-.03-.39-.01-.02,0-.04,0-.05.01,0,0,0,.01,0,.01.04.02.08.02.12.03.02,0,.03.02.05.03.07.07.1-.05.15-.04.04,0,.07,0,.1.02.03.12.16.2.17.33-.21.15-.42.27-.69.18-.07-.21-.27-.25-.44-.31-.14-.05-.22-.11-.28-.24-.06-.13-.13-.24-.31-.28-.16-.04-.3-.18-.41-.31-.09-.11-.06-.25.08-.29.11-.03.19-.09.24-.19.05-.11.19-.04.26-.11Z"/>
    <path class="cls-16" d="M10.15,9.76c-.14-.03-.21-.11-.15-.26-.02-.15.08-.12.16-.1.15.03.29-.04.41-.04.24,0,.47-.24.72-.04.05.03.11.04.14-.02.12-.13.26-.1.4-.04.05.08.16.13.09.25-.04,0-.12-.05-.09.05,0,.03.06.05.09.07q.31.25.05.52s0,.04-.01.07c-.06.25-.15.3-.35.2-.02,0-.04-.03-.06-.03-.26,0-.49-.11-.71-.23-.02,0-.04,0-.06,0-.07,0-.13-.03-.18-.07-.04-.04-.09-.06-.14-.09-.11-.07-.22-.13-.3-.24Z"/>
    <path class="cls-64" d="M12.63,8.21c.11,0,.22.06.34.02,0-.08-.07-.07-.11-.11-.05-.05-.11-.11-.06-.18.06-.09.12-.03.17.02.06.06.18.03.2.14.05.05.11.05.17.02.13-.05.22-.02.3.1.06.1.16.11.27.08.1-.03.15-.12.15-.21,0-.14.07-.25.14-.35.09-.13.24-.13.28.02.05.19.2.25.34.32.1.05.2.08.21.2,0,.03,0,.07-.02.1-.05.1-.14.08-.22.05-.07-.02-.14-.06-.19.03.08.08.17.13.28.06.07-.04.14-.03.21.01.16.14.17.15.04.24-.08.19-.22.22-.4.16-.15-.04-.29-.09-.38.11-.05-.1.02-.14.02-.2,0-.07-.01-.15-.09-.17-.09-.02-.12.04-.13.12,0,.15-.07.13-.18.09-.17-.05-.38-.2-.51.09-.02.05-.1.05-.12,0-.06-.13-.22-.15-.32-.25.18-.15.39.04.57-.09-.26-.16-.53-.16-.8-.08-.12.04-.21,0-.27-.07-.11-.13.1-.16.1-.27Z"/>
    <path class="cls-100" d="M10.8,10.09c.12-.1.23-.11.31.06.02.05.08.08.13.08.18,0,.35-.02.51.12.06.06.14-.08.21-.14.03,0,.06.01.09.02.08.07.04.13,0,.21-.04.11-.1.21-.11.33,0,.06-.02.12.05.14.28.06.3.39.53.49.02,0,.01.04.01.07-.02.13-.12.11-.21.1-.08-.01-.16-.07-.23.02-.02.01-.04.02-.06.02-.06,0-.15.03-.17-.02-.1-.2-.25-.13-.41-.12-.14,0-.29-.04-.36-.2-.12-.16-.26-.18-.41-.06-.08.09-.17.1-.27.06-.08-.14-.18-.26-.24-.41-.05-.14-.04-.26.1-.34.06-.02.12-.02.18.01.05.12.14.18.27.17-.05-.04-.15.01-.19-.07-.01-.11.05-.12.14-.13.12-.02.22,0,.33.03-.13,0-.18-.11-.25-.2-.01-.02-.02-.04-.02-.06-.01-.08.05-.12.09-.18Z"/>
    <path class="cls-70" d="M9.8,8.63c-.06-.02-.17,0-.16-.1,0-.1.1-.06.17-.05.07,0,.18.02.18-.05,0-.11-.11-.07-.18-.07-.18.01-.3-.14-.46-.18,0-.02,0-.03,0-.05.1-.2.37-.3.56-.21.08.04.16.05.26.04.08-.01.16,0,.23.05.23,0,.26.24.39.35.14.11.26.2.45.15.06-.02.12,0,.15.07-.17.04-.14.11-.03.19.05.04.11.08.07.15-.04.07-.12.05-.19.03-.09-.04-.19-.09-.22-.19-.02-.06,0-.12-.09-.06-.04.03-.1.06-.06.13.04.06.17.13.05.19-.09.04-.24,0-.31-.1-.06-.09-.13-.14-.24-.15-.13.04-.2-.04-.26-.13-.11.06-.22.08-.33,0Z"/>
    <path class="cls-119" d="M12.48,11.47c-.14-.11-.33-.18-.36-.39,0,0,0-.02,0-.02-.17-.06-.3-.15-.25-.37.03-.17.08-.32.19-.45,0,0,0,0,0,0,.3.01.47.22.36.45-.03.04-.14.03-.07.13.06.09.11.06.19.03.22-.1.44-.2.7-.2.01,0,.02,0,.03,0,.15.04.27.11.23.3,0,.03-.02.07.02.07.06,0,.14-.03.1.08-.04.09-.12.09-.19.05-.13-.06-.24-.17-.39-.17-.02.04-.05.07-.1.03-.05.08-.18.14-.09.27,0,.19-.13.23-.28.25-.04-.01-.06-.04-.08-.07Z"/>
    <path class="cls-70" d="M11.29,9.32c-.28.06-.56.09-.81.25-.07.05-.14,0-.22-.02-.09-.02-.16-.14-.27-.05-.03,0-.06,0-.09-.01-.06.04-.12.07-.19.02h0c-.08-.07-.17-.05-.26-.05-.1,0-.15-.03-.09-.14h0c.08-.06.16.04.24-.01.16-.09.31-.01.48.02-.02-.17-.26-.29-.09-.47.1.04.34-.04.2.22-.01.03.03.06.06.05.22-.1.41.06.61.08.05,0,.11-.04.17-.05.13-.02.25-.01.26.17Z"/>
    <path class="cls-146" d="M12.32,10.65c.08-.25-.16-.29-.27-.42.31-.26.49-.26.73,0,.06.07.11.06.18.04.11-.03.22-.07.35.03-.24.09-.08.22-.06.34h0c-.24.13-.55.07-.78.24-.06.05-.12-.04-.17-.08-.07-.05-.03-.11.02-.15Z"/>
    <path class="cls-100" d="M12.57,11.48c.03-.14.17-.13.26-.19.03,0,.06,0,.09.01.04.05.11.07.12.15,0,.16.11.2.26.18h0c.23.05.28.3.44.42.07.06.12.23-.05.3-.23,0-.46.02-.65-.14-.04-.03-.09-.06-.14-.05-.18.03-.27-.07-.35-.21.06-.13.08-.25,0-.38-.02-.03.01-.07.04-.1Z"/>
    <path class="cls-139" d="M14.47,10.68l.08.06c0,.23-.23.28-.33.44-.03.05-.08,0-.12-.03-.09-.07-.12,0-.14.07-.07.02-.1-.01-.09-.08.01-.06,0-.12-.06-.16-.05-.04-.22-.02-.12-.14.08-.09.19-.24.35-.14.15.1.29.07.43,0Z"/>
    <path class="cls-70" d="M11.81,9.3c-.12,0-.25,0-.37,0,.03-.17.14-.21.3-.18.27.05.53-.02.78-.11.1-.03.03-.14.07-.19.2,0-.07.42.3.24-.07.14-.14.22-.25.19-.21-.07-.37.03-.51.15-.14.09-.21-.06-.32-.1Z"/>
    <path class="cls-35" d="M14.03,10.15c-.08-.01-.15-.06-.23-.03-.12.05-.24.14-.38.09,0-.13.15-.06.16-.16,0-.05-.07-.04-.1-.07-.07-.07-.09-.16-.05-.25.04-.09.12-.09.2-.05.2.11.44.09.62.23,0,.01,0,.02,0,.03.02.05.01.1-.02.14,0,.02-.01.04-.02.06-.06,0-.13.01-.19.02Z"/>
    <path class="cls-99" d="M14.38,8.42c-.03-.06-.08-.12.05-.11.17.02.35.04.52.05.18-.07.38-.03.56-.02.18.01.13.19.15.31,0,.03,0,.06-.01.09-.11.04-.22-.06-.33,0h0c-.06.04-.12.08-.19.02.04-.11-.07-.11-.12-.16-.14-.05-.28-.01-.43-.06-.08-.03-.14-.06-.2-.12Z"/>
    <path class="cls-15" d="M13.66,12.3c.07-.22.04-.29-.17-.32-.09-.02-.28.02-.11-.18.05-.06-.05-.11-.09-.16.03-.01.07-.02.1-.03.19.03.21.23.31.34.21.22.4.46.37.8-.1.05-.15-.04-.22-.08-.29-.1-.3-.13-.18-.36Z"/>
    <path class="cls-137" d="M11.81,9.3c.12-.03.22.05.32.1.12.18.29.16.46.13.04,0,.07-.04.11-.04.1,0,.2.04.26.13.03.04.04.09,0,.13-.07.08-.16.08-.26.05-.27-.07-.54-.15-.78-.29-.04-.07-.07-.14-.11-.21Z"/>
    <path class="cls-36" d="M14.22,10.13s-.03,0-.04,0c-.13-.13-.01-.17.08-.22h0c.06-.06.12-.13.22-.08.07.04.15.07.15.16,0,.09-.09.09-.15.11-.08.03-.16.05-.25.04Z"/>
    <path class="cls-119" d="M13.29,11.64c-.27.07-.3.04-.37-.34.13,0,.26-.03.23.18-.01.08.07.12.15.15Z"/>
    <path class="cls-139" d="M14.5,11.07s0,.03,0,.05c0,.03,0,.06,0,.09-.01.05.09.12-.01.15-.05.02-.11,0-.14-.05-.04-.06-.01-.12.03-.17.04-.04.09-.06.14-.07Z"/>
    <path class="cls-14" d="M10.13,8.64c.1.02.18.07.26.13-.19.1-.23.08-.26-.13Z"/>
    <path class="cls-139" d="M12.92,11.02s.07-.02.1-.03c.01.06.09.15,0,.17-.11.03-.08-.08-.09-.14Z"/>
    <path class="cls-64" d="M12.38,8.38s-.03.05-.05.03c-.01-.01,0-.04-.01-.06.02,0,0-.06.03-.02.02.01.02.04.03.05Z"/>
    <path class="cls-150" d="M15.32,8.75l.07.04s-.02.02-.02.03c-.02-.02-.03-.05-.05-.07,0,0,0,0,0,0Z"/>
    <path class="cls-139" d="M14.06,11.29s-.03.02-.03.02c-.02-.03-.05-.06-.07-.09.02,0,.03,0,.05,0,.03,0,.05.03.05.07Z"/>
    <path class="cls-68" d="M13.95,12.58c.04.05.08.1.12.16.14.03.27.08.39.14.11.06.1.11-.01.15,0,0-.01.01-.02.02,0,.02,0,.04,0,.05.04.08.14.04.18.1h0s.02.04.04.05c.02.09-.05.2.08.26.01,0,.02.03.02.04-.07.34.22.29.39.36.16.06.31.14.48.19.14.04.21.21.17.38-.05.04-.11.02-.16.01-.26-.01-.49-.08-.64-.32-.05-.09-.16-.12-.26-.1-.18.04-.33-.02-.44-.16.02-.3-.12-.55-.26-.8-.03-.05-.07-.07-.12-.09-.21-.08-.42-.12-.64-.06-.08-.03-.1-.11-.16-.16-.07-.06-.1-.14-.05-.23.05-.09.12-.14.22-.13.12,0,.22.03.31.11.1.09.22.13.35.04Z"/>
    <path class="cls-125" d="M14.75,13.17c-.09-.08-.07-.14.04-.16.09-.02.19-.03.26.05.15.15.29.3.52.31.02,0,.05.02.05.04.04.24.21.38.44.45-.14.13-.29.05-.4.11-.02.14-.13.12-.2.09-.2-.07-.4-.13-.6-.19-.11-.03-.16-.11-.13-.23.05-.15.18-.3.02-.46Z"/>
    <path class="cls-133" d="M14.78,13.59c0,.17.1.27.27.28.21,0,.39.18.61.09.06.03.2,0,.11.15-.01.02-.01.05,0,.06.13.16.34.22.47.36.16.17.28.27.51.12.09-.06.15-.03.11.1-.01.04-.01.09-.02.13-.06.14-.17.08-.27.07-.06-.01-.12-.01-.18-.03-.16-.14-.33-.25-.52-.35-.06-.03-.11-.06-.1-.13-.18-.44-.63-.41-.98-.54-.14-.05-.21-.07-.15-.22.02-.06.02-.11-.04-.14-.2-.1-.08-.2,0-.3.29.09.29.1.18.35Z"/>
    <path class="cls-102" d="M15.48,12.4c-.25.28.1.27.17.38.04.06.16.09.11.17-.06.1-.14,0-.19-.04-.16-.11-.33-.18-.53-.22-.07-.01-.16-.05-.16-.14,0-.11.1-.05.16-.07.11-.03.19-.13.32-.13.05,0,.11,0,.11.06Z"/>
    <path class="cls-30" d="M14.78,13.59c.03-.16-.1-.24-.18-.35,0-.02,0-.03,0-.05.05,0,.1-.02.14-.02.07.01.17.02.17.09.01.12.11.25.08.34-.04.13-.15,0-.23-.01Z"/>
    <path class="cls-154" d="M14.07,11.75c.34-.13.59-.07.81.21-.3-.06-.52-.28-.81-.21Z"/>
    <path class="cls-1" d="M16.61,14.89c.08,0,.15,0,.23,0,.02.06.04.13.07.19-.03,0-.06,0-.09-.01-.26,0-.26,0-.21-.17Z"/>
    <path class="cls-107" d="M15.2,11.93c-.13-.02-.22-.02-.24-.14,0-.02.03-.07.04-.07.09.02.15.09.2.2Z"/>
    <path class="cls-30" d="M14.61,13.19c-.11-.02-.22-.02-.31-.09.02-.02.04-.03.06-.04.05,0,.09.03.12.06.04.02.09.04.13.07Z"/>
    <path class="cls-125" d="M14.48,13.12s-.09-.01-.14-.02c-.03-.02-.06-.06-.03-.09.04-.04.09-.02.14.01h0s.02.07.03.1Z"/>
    <path class="cls-65" d="M5.98,13.32c.03-.07.08-.08.14-.08.05,0,.09-.03.06-.09,0-.01,0-.03,0-.04-.03-.07-.1-.1-.17-.12,0-.05.01-.09.02-.14.05-.01.08-.04.11-.08.02-.03.06-.03.09-.03.15.17.31.04.46.02.18.08.37.03.55.09.26.06.37.16.33.3-.04.14-.21.18-.45.11-.01,0-.03,0-.05,0-.12-.02-.24-.06-.34-.02.08,0,.18-.04.27.03.04.04.08.08.09.14.06.18.24.11.36.16.08.03.2-.02.24.11.04.13.14.29-.12.31-.04,0-.09.04-.09.09,0,.06.04.1.09.12.11.06.22.06.34.04.08-.01.15.01.19.09.03.07,0,.11-.06.15-.05.03-.05.07-.03.12.03.05.09.06.14.06.14,0,.25-.08.38-.1.23-.02.46,0,.69.03.15.02.17.1.04.19-.06-.1-.18-.04-.25-.1.07.06.19,0,.25.1-.11.01-.21.02-.32.03-.06,0-.15,0-.17.04-.18.23-.35.13-.52,0-.04-.03-.08-.05-.12-.04-.09.21.06.34.17.47-.02.01-.03.01-.04,0-.22-.13-.5-.19-.6-.49-.03-.08-.11-.03-.17.01-.28.2-.29.19-.34-.12,0-.05-.04-.11-.08-.1-.17.06-.27-.13-.43-.09-.07.02-.13-.03-.15-.08-.11-.21-.3-.37-.34-.62,0-.05-.04-.1-.02-.13.11-.19,0-.28-.14-.36Z"/>
    <path class="cls-101" d="M7.03,13.42s-.05-.07-.08-.1c0-.07.08-.08.11-.12.04-.07.08-.12.16-.05.08.07.17.12.23.01.07-.12-.08-.11-.14-.16-.02-.02-.05-.04-.07-.05-.04-.13.02-.2.12-.21-.03.01-.08.02-.13-.02-.11-.09-.21-.2-.34-.26-.11-.05-.15-.15-.16-.27.03-.09.11-.09.19-.09.18.01.37-.08.55.04.02.02.04-.03.06-.06.17-.18.41-.18.6-.03.13.11.31.17.47.21.23.05.33.17.25.39-.01.03-.02.06-.02.09-.02.07-.04.14-.1.2-.02,0-.03,0-.05,0-.09.06-.21.12-.03.23-.06.14-.37.2-.49.1q-.24-.19-.42.05c-.04.07-.11.07-.17.1-.11.02-.19.09-.29.11-.09-.02-.21.04-.26-.09Z"/>
    <path class="cls-9" d="M12.23,13.73s.02.08,0,.07c-.34-.17-.69.04-1.02-.04.08-.12.13-.24.07-.42-.13.13-.27.12-.43.06-.26-.09-.53-.1-.78.05l-.21-.17c-.11-.24-.08-.3.17-.37.08-.02.19,0,.23-.12.22-.19.43-.21.67-.03.25.2.54.23.84.25.06,0,.13,0,.18-.03.19-.14.38-.07.56.02.09.09.18.16.2.3.05.23,0,.29-.24.27-.07,0-.15-.06-.22.01,0,.05-.01.09-.02.14Z"/>
    <path class="cls-101" d="M9.09,12.79s-.1.02-.14.02c-.06.04-.11.02-.14-.04,0-.05,0-.11.03-.16.11-.19.02-.35-.19-.36-.15,0-.23-.13-.22-.36,0-.16.07-.22.24-.24.33-.05.65-.02.97.02.2.03.4.03.6.09.06.04.1.09.07.15-.1.26-.06.57-.28.78-.21.09-.29-.06-.38-.2-.02-.04-.05-.08-.09-.1.18.18.18.19.01.38-.02.02-.04.05-.05.08-.02.08,0,.2-.15.18-.12-.02-.22-.05-.22-.2,0-.02-.03-.03-.05-.05Z"/>
    <path class="cls-106" d="M7.92,13.74c.08.01.17.08.24-.05.04-.07.12-.02.16,0,.17.11.36.13.55.14.1,0,.12.03.13.13.02.23.26.32.48.21.08-.04.16.02.24.04.04,0,.06.05.04.09-.02.06-.08.11-.14.11-.37-.03-.78.1-1.06-.26-.03-.04-.05-.05-.11-.04-.3.06-.44-.02-.59-.3-.02-.06.02-.07.06-.08Z"/>
    <path class="cls-76" d="M8.25,15.29s.03,0,.04,0c.07.19.17.29.36.13.06-.05.22,0,.2-.16,0,0,.12.06.19.1-.23.08-.18.33-.31.48-.11.13-.23.14-.36.1-.08-.02-.17-.1-.21.03-.03.11.09.1.15.13.03.01.07.03.16.07-.17.04-.28.1-.4,0-.05-.04-.1-.04-.14.02-.13.06-.18-.02-.21-.12-.01-.06.01-.13-.03-.19-.02-.1.05-.14.12-.17.09-.03.17-.05.15-.18-.01-.09.06-.09.13-.06.05.02.09.09.16.07,0-.12-.13-.13-.18-.21.05-.08.12-.03.18-.03Z"/>
    <path class="cls-73" d="M9.09,12.79c.13,0,.1.22.27.21,0-.09-.03-.2.03-.29.02-.03,0-.08.06-.08.06,0,.14.04.15-.05.01-.08-.07-.11-.13-.15-.08-.07-.18-.11-.24-.24.16-.03.23.12.35.15.06.01.09.04.08.1.1.1.21.17.35.19.02,0,.05,0,.06-.02.07-.06.14-.1.22-.04.1.07.06.16.01.25,0,0,.01,0,.02.01.05.06.19.06.14.17-.05.12-.15.06-.24.04-.24-.06-.3-.02-.37.22-.21-.22-.5-.19-.76-.25h0c0-.08,0-.16-.01-.24Z"/>
    <path class="cls-110" d="M7.92,13.74s-.04.06-.06.08c-.07-.03,0-.22-.17-.16-.31-.02-.61-.05-.92-.19.09-.1.18-.05.25-.05.09,0,.19,0,.28,0,.08-.04.2.02.25-.1.06-.03.13-.03.19-.02.14.12.28.23.17.45Z"/>
    <path class="cls-73" d="M9.1,13.03c-.07.08.19.16,0,.24-.07.03-.18.03-.2-.06-.03-.15.07-.18.2-.18h0Z"/>
    <path class="cls-73" d="M8.82,12.75s.09.04.13.07c.01.18-.09.15-.2.11-.02-.07-.02-.13.03-.18.02-.03.04-.03.05,0Z"/>
    <path class="cls-73" d="M8.66,13.15c-.06-.02-.16,0-.16-.1,0-.09.11-.11.19-.13-.05.07-.1.14-.03.23Z"/>
    <path class="cls-6" d="M5.58,8.05c.16-.12.35-.09.53-.11.03.02.06.04.09.06.02.06,0,.1-.05.12-.01,0-.02,0-.02,0,.01,0,.02-.01.03-.02.14-.01.25.05.36.13.28.21.6.25.93.15.11-.03.21-.01.32,0,.06,0,.12.06.09.11-.08.15.04.2.11.28.13.13.16.31.22.48.05.12-.06.19-.2.16-.09-.02-.14-.12-.25-.11-.1.05-.16.14-.22.23-.12.2-.24.21-.41.03-.02-.07-.04-.13-.14-.11-.14.02-.24-.09-.37-.11-.05,0-.1-.07-.08-.12.03-.1.02-.13-.09-.17-.13-.04-.09.08-.14.11-.04.02-.07.08-.1.17.13-.09.23-.06.36-.01.15.06.29.15.47.13.05,0,.07.05.08.1.01.03.02.07.01.1-.01.04-.04.06-.08.07-.03.01-.07.01-.1.02-.02,0-.04,0-.07.02-.26.1-.54.04-.8.14-.05.02-.12-.02-.13-.07-.08-.22-.25-.38-.43-.53.02-.14-.04-.24-.17-.29-.08-.03-.16-.05-.19-.15-.1-.3-.1-.3-.36-.16-.23,0-.39-.12-.49-.33.1,0,.19,0,.28,0,.04-.11-.13-.13-.06-.21.06-.09.17-.06.26-.04.08.02.15.07.23.09.1.03.24.08.28-.05.06-.17.17-.13.28-.12Z"/>
    <path class="cls-88" d="M2.54,8.63c.21-.07.21.14.29.23.23.05.1.22.13.35-.1-.01-.18-.15-.29-.07.18.4.48.48.86.35.02-.02.04-.02.06-.02.08.04.18.06.21.16,0,.16-.04.26-.22.14-.05-.03-.1,0-.15,0-.02,0-.04.01-.06.02-.05.02-.09.05-.15.05-.11-.02-.2.02-.29.07-.16.07-.29.05-.35-.13-.04-.06-.06-.13-.13-.18-.21-.06-.44-.07-.64-.19-.13-.08-.17-.15-.03-.23.2-.12.32-.36.59-.36.1,0,.08-.14.16-.18Z"/>
    <path class="cls-144" d="M3.58,9.49s-.03,0-.04,0c-.02-.19-.01-.39-.17-.54-.06-.06,0-.11.04-.15.1-.08.23-.13.35-.1.21.05.4.02.6-.03.04.15-.02.27-.1.4-.09.07-.27,0-.31.1-.05.12.12.17.17.26.02.03.02.07,0,.11-.07.1-.17.08-.26.05-.09-.04-.19-.05-.28-.09Z"/>
    <path class="cls-92" d="M4.22,8.98c.03-.11,0-.25.14-.31-.04-.13-.23-.13-.23-.3.06-.05.12.05.18.01.19.06.31.25.52.26,0,.01,0,.02.01.03-.07.22-.26.33-.44.42-.09.04-.2.05-.18-.12Z"/>
    <path class="cls-6" d="M5.03,7.6c.17-.14.3-.08.45.05.15.14.03.12-.06.14-.18-.1-.2.03-.22.18-.17-.08-.26-.19-.17-.38Z"/>
    <path class="cls-153" d="M15.66,8.66c-.14-.33-.47-.19-.71-.29,0-.03,0-.06.01-.09.02-.09.19-.13.09-.27-.02-.02.04-.08.09-.07,0,0,0,0-.01,0-.05-.02-.09,0-.13.03-.14.11-.29.12-.41,0-.14-.13-.16-.32-.06-.45.11-.14.06-.32-.12-.38-.1-.04-.19-.08-.19-.2,0-.22-.11-.14-.2-.06-.12.1-.23.14-.36.02-.03-.03-.06-.06-.08-.11,0-.11.08-.15.15-.16-.15.07-.33.23-.48-.05-.07.05-.01.12-.03.18-.05.09-.14.12-.22.16-.11-.02-.16-.14-.29-.17-.12-.03-.09-.23.04-.31.08-.05.16-.08.23-.15.03-.02.07-.03.1,0,.05,0,.11.01.16.01.29,0,.31-.03.21-.3-.02-.07-.09-.16-.02-.21.1-.07.11.07.17.1.04.02.09.07.12.06.29-.07.46.18.68.28.1.05.16.07.18-.05.04-.21.17-.18.31-.12.08.03.16.06.24.09.04.01.1.04.07.07-.16.17.1.13.11.21.05.04.04.09.01.14-.1.17,0,.28.15.33.19.06.27.18.32.35,0,.01-.01.02,0,.03.01-.02.05-.03.04-.05-.06-.06-.14-.12-.07-.21.06-.09.17-.1.27-.1.18,0,.34,0,.49-.14.08-.08.2-.04.3.02.2.11.28.22-.02.31-.06.02-.08.09-.1.14h0c-.14-.01-.22.18-.22.19.06.23-.17.23-.23.35-.09.14-.17.31-.22.46-.08.21-.23.32-.38.44Z"/>
    <path class="cls-98" d="M13.11,6.26s-.03.03-.05.04c-.2.07-.31.02-.35-.15q-.05-.23-.28-.27c.09.07.12.16.04.25-.07.08-.18.07-.25.02-.09-.06-.19-.08-.3-.1.22.02.4.16.63.16.08,0,.15.05.16.14.02.12-.06.18-.15.23-.07.01-.14.01-.2,0-.11-.04-.2-.04-.3.07-.11.11-.3.14-.42.02-.15-.13-.3-.13-.45-.07-.2.08-.37-.02-.56-.05-.08-.01-.11-.1-.09-.16.02-.09-.04-.14-.07-.21h0c-.15-.16-.19-.44-.1-.58.17.09.06.29.17.4.1.02.21.03.31.01.13-.05.22-.16.36-.18.06,0,.14.02.16-.08-.01-.16.13-.15.22-.2.23,0,.49-.13.68.11.02.02.06.04.08.03.3-.11.65,0,.93-.18.07-.05.14-.08.07-.17l.19-.02c.03.05.09.08.1.11,0-.03-.07-.06-.1-.11.12-.05.22,0,.32.05.12.08.26.12.4.15-.27.16-.55.23-.85.07-.06-.03-.44.16-.44.23,0,.15-.03.32.15.42Z"/>
    <path class="cls-89" d="M16.83,6.77c-.05.06-.3-.07-.17.18.04.07-.05.06-.1.06-.2,0-.41,0-.61.01-.04,0-.08.02-.1.07.08.1.29.04.29.28-.22-.22-.42.14-.64-.02,0-.06.03-.06.06-.07.06-.03.18.03.17-.09,0-.09-.1-.13-.18-.16-.31-.09-.4-.36-.21-.63.03-.01.07-.02.1-.03.11-.11.24-.13.37-.08.14.06.3,0,.42.1.19.06.36.18.54.27.04.02.08.04.06.1Z"/>
    <path class="cls-153" d="M16.23,6.4c-.27.03-.53-.1-.79-.03-.02-.16.07-.17.2-.16.16.02.33.09.49-.02,0,.09.06.14.11.2Z"/>
    <path class="cls-39" d="M17.95,4.88c.25.06.11.25.13.39-.14-.29-.22-.31-.48-.11-.17.13-.31.1-.43-.07.26-.07.53-.1.78-.21Z"/>
    <path class="cls-2" d="M17.19,5.44c-.06.09-.19.07-.28.1-.08.03-.16.03-.19-.06-.03-.08.03-.14.08-.18.12-.1.21.07.32.05.04,0,.07.02.08.09Z"/>
    <path class="cls-7" d="M11.35,5.77s.16.07.1.17c-.05.09-.13.12-.23.05-.21-.19-.28.04-.39.13-.16.15-.25.08-.31-.09.04-.07.11-.13.05-.23-.04-.06-.03-.1.05-.12.11-.03.12-.11.11-.2-.03-.22.1-.18.2-.1.15.12.29.26.43.39Z"/>
    <path class="cls-83" d="M10.34,5.62c.09.18-.05.41.1.58-.07-.03-.13-.09-.15-.17-.01-.04-.02-.1-.04-.11-.23-.09-.3-.27-.3-.5,0-.05-.08-.11,0-.16.06-.03.12,0,.17.05.05.04.05.15.15.11l.06.2Z"/>
    <path class="cls-83" d="M10.33,5.38s-.02-.09-.02-.14c.09-.02.15-.15.27-.08.02.01.03.06.03.08-.04.13-.17.11-.27.14Z"/>
    <path class="cls-83" d="M10.27,5.19c.05-.21-.21-.27-.21-.45.13.12.4.18.21.45Z"/>
    <path class="cls-155" d="M7.7,15.87c.08.02.15.05.14.15,0,.08.03.13.09.17.01.03.02.06.03.1.09.21.07.23-.17.21-.03-.02-.06-.04-.09-.06-.03-.05-.08-.1-.07-.14.02-.23-.19-.26-.28-.23-.21.06-.37-.04-.56-.06-.1,0-.2-.03-.31-.02-.11,0-.25-.11-.21-.28.06,0,.15.06.19,0,.08-.12-.11-.16-.1-.27.05-.08.07-.16-.01-.23-.01-.02-.02-.04-.04-.06,0-.13.12-.01.15-.07.03,0,.06.01.09.02.19.13.41.08.61.04.22-.05.37.07.53.16.09.05.03.36-.08.41-.07.03-.14.05-.24.08.11.09.21.13.33.09Z"/>
    <path class="cls-82" d="M6.74,17.35c-.07-.01-.14-.04-.12-.09.03-.08.12-.14.21-.15.07,0,.08.06.07.12,0,.12-.1.11-.17.12Z"/>
    <path class="cls-19" d="M2.54,8.63c.04.07.18.13.08.23-.07.07-.13.21-.28.12-.04-.03-.09-.03-.12.02-.08.16-.27.16-.39.3.15.09.3.15.48.15.08,0,.17.02.24.08-.08.11-.21.05-.3.1-.05.06-.07.14-.14.17-.03,0-.07.03-.09,0-.14-.17-.39-.2-.5-.41-.05-.1-.17-.08-.24-.15h0c-.04-.08-.07-.17-.19-.18-.08,0-.14-.06-.14-.16,0-.01,0-.03,0-.04.06,0,.13-.01.19-.02.05,0,.12-.14.14.02.11.19.28.07.42.07.09,0,.07-.07-.1-.2.42-.33.47-.38.93-.11Z"/>
    <path class="cls-67" d="M1.28,8.87s-.09-.01-.14-.02c.02-.1.03-.21.17-.21.15.1.06.17-.03.23Z"/>
    <path class="cls-48" d="M6.64,15.1c-.05-.15.07-.06.11-.08.02.09-.05.09-.11.08Z"/>
    <path class="cls-84" d="M6.13,8.13s.05-.09.07-.13c.16,0,.31,0,.44-.12.06,0,.13-.01.19-.02h0c.22.14.44.28.7.34.05.22.21.18.36.16.03,0,.08-.06.1-.05.25.16.43-.14.67-.08-.11.08-.28.12-.24.32.01.05-.08.05-.13.07-.06.02-.14.01-.13.1,0,.07.06.12.12.13.11.02.18.07.23.17.01.03.06.05.1.05.06,0,.04-.05.03-.09,0-.04,0-.08.04-.08.06,0,.12.03.12.09,0,.45.31.61.67.73.12.04.11.11.07.2.01.04,0,.07-.04.09-.16.02-.29-.09-.44-.11,0,0-.02.02-.01.02,0,.12-.08.17-.19.19-.02,0-.04,0-.06,0-.03,0-.07-.01-.09-.03-.02-.01-.03-.03-.05-.05-.1-.14-.21-.2-.39-.1-.11.07-.24.05-.31-.09-.05-.12-.17-.18-.22-.29-.05-.11-.14-.23.03-.33.11.03.22.07.36.12-.1-.13-.18-.24-.18-.39,0-.07-.08-.17-.2-.12-.07.03-.17.05-.2-.04-.03-.09.02-.16.1-.22.04-.03.16-.02.12-.1-.04-.08-.13-.06-.2-.02-.17.08-.34.13-.55.12-.37-.02-.6-.24-.87-.42h0Z"/>
    <path class="cls-152" d="M6.91,6.98c.06.07.03.13-.03.18-.17.04-.25.15-.25.31,0,.09-.04.12-.1.15h0c-.11-.06-.35,0-.25-.27.01-.04-.06-.05-.11-.06-.08-.02-.16-.04-.24-.06-.04-.01-.08-.02-.08-.07,0-.04.04-.07.08-.06.15.01.22-.12.22-.21,0-.11-.15,0-.21-.08.06-.05.05-.03.45.03.18.02.34.06.5.13Z"/>
    <path class="cls-153" d="M16.72,7.22s.09-.04.12.02c0,0,0,.03-.02.04-.06.03-.08,0-.1-.05h0Z"/>
    <path class="cls-86" d="M15.01,14.94c-.2.02-.37-.04-.55-.15-.2-.13-.45-.21-.72-.17-.13-.18-.11-.23.09-.31.24-.1.46-.03.7,0,.02,0,.05,0,.07.01.05,0,.05.12.1.06.11-.12.23-.08.36-.06.03.01.05.04.08.05.1.07.21.07.33.08.02.01.04.03.06.05.13.23.06.38-.2.4-.1.01-.21.03-.31.04Z"/>
    <path class="cls-28" d="M15.01,14.94c.06-.1.17-.09.27-.12.18-.05.28-.14.18-.33.07-.1.13-.06.22,0,.24.13.44.36.75.33.02,0,.04,0,.06.02.04.02.09.05.13.07,0,.14.11.15.21.17l-.43.12s0-.03,0-.04c-.14-.03-.27-.05-.42,0-.11.03-.27-.06-.41-.07-.07-.03-.15-.05-.22-.08-.12.08-.22,0-.32-.05h0Z"/>
    <path class="cls-28" d="M14.58,14.36c-.2,0-.4.01-.61,0-.17,0-.26.05-.23.24-.01,0-.03,0-.04,0-.06-.02-.11-.07-.18-.03-.03,0-.06-.01-.09-.02-.13-.23.15-.11.17-.2.04-.03.07-.05.11-.08.02-.03.04-.06.08-.08.15.02.29.07.43-.07.08-.07.24-.07.34.01.08.05.09.14.03.22Z"/>
    <path class="cls-111" d="M15.55,15.07c.28,0,.57-.1.83.07-.13.07-.3,0-.41.14-.01.01-.08.01-.08,0-.06-.15-.25-.1-.34-.21Z"/>
    <path class="cls-86" d="M15.01,14.94c.11.02.22.03.32.05-.16.32-.22-.02-.32-.05Z"/>
    <path class="cls-32" d="M13.51,14.57c.07-.03.13-.02.18.03-.06,0-.12-.02-.18-.03Z"/>
    <path class="cls-52" d="M7.79,16.49c.12-.02.18-.09.17-.21.1.09.35.02.29.28-.15-.04-.32.04-.46-.07Z"/>
    <path class="cls-61" d="M8.6,1.56c-.11.04-.24.05-.31,0-.2-.14-.34-.04-.49.07.03-.13-.13-.3.07-.4.05-.03.12-.08.15,0,.12.25.34.3.58.34Z"/>
    <path class="cls-52" d="M7.68,16.85s.04.03.04.04c0,.03-.02.04-.05.03-.02,0-.03-.03-.04-.05.01,0,.02-.01.04-.02Z"/>
    <path class="cls-96" d="M2.09,9.74c0-.08-.04-.18.08-.22.04.06.1.1.18.08.14-.04.22.04.31.13.06.08.16.14.23.05.13-.14.24-.08.37,0,.03,0,.05.03.06.05,0,.02.01.03.02.05.01.01.02.03.03.04.03.02.06.04.1.05.2.07.46,0,.58.25.02.16-.04.25-.19.3.19-.06.28.07.36.19.18.26.45.4.75.45.15.03.25.06.27.22,0,.06-.04.1-.08.13-.04.06-.08.13-.12.2-.06.02-.08-.04-.1-.07-.13-.27-.39-.28-.64-.3-.03,0-.08.01-.09,0-.11-.17-.23-.06-.34-.02-.24-.16.1-.15.07-.27-.21-.01-.37-.18-.59-.2-.05,0-.12-.04-.09-.08.11-.2-.06-.18-.13-.16-.26.06-.34-.13-.46-.28-.08-.13-.19-.24-.27-.37h0c-.11-.1-.18-.02-.24.06-.02,0-.03,0-.05,0h0c-.15-.09-.07-.19,0-.28Z"/>
    <path class="cls-56" d="M5.16,11.51s0-.06.01-.09c.03-.05.08-.08.13-.05.16.11.37.14.48.32.03.04.07.07.09.12.03.1-.04.18-.04.28-.01.03-.04.06-.07.08-.04.12.04.25-.06.36-.08-.09-.11-.17-.14-.3-.03-.15-.03-.35-.17-.48-.11-.05-.16-.16-.25-.22Z"/>
    <path class="cls-58" d="M2.38,9.97c.19.05.21.22.27.37-.14-.08-.29-.17-.27-.37Z"/>
    <path class="cls-58" d="M2.14,10.03c.07-.08.1-.31.24-.06-.09,0-.17.02-.24.06Z"/>
    <path class="cls-31" d="M14.58,14.36c-.06-.22-.24-.16-.35-.11-.18.09-.32.05-.48-.02-.03-.05-.02-.1-.02-.16-.04-.24-.21-.34-.43-.25-.27.11-.31.09-.42-.18-.02-.05-.06-.06-.11-.03-.17.03-.34,0-.51-.03-.01-.06-.05-.14.05-.12.1.01.24.14.3,0,.05-.12-.02-.26-.14-.36.02-.12.11-.12.2-.11.09,0,.17.05.26.07.09.04.18.08.27.07.27-.03.5.16.77.16.04,0,.08.03.09.07.05.21.22.33.32.5.13.07.25.13.41.11.18-.02.31.09.42.23.11.16.26.21.45.18.22.21.49.36.78.45-.25.07-.47.07-.66-.15-.08-.09-.17-.21-.33-.18h0c-.05-.05-.1-.03-.14,0-.1.07-.19.06-.28-.01-.01-.02-.03-.04-.04-.05-.06-.13-.14-.18-.27-.07-.05.04-.09.05-.15.01h0Z"/>
    <path class="cls-106" d="M12.77,13.62c.12-.04.24-.03.36,0-.03.1-.14.05-.18.14.12.05.22,0,.32-.05.25-.12.34-.08.49.14.04.06.1.09.15.14.04.04.11.07.09.15-.02.08-.09.06-.15.06-.04,0-.07.02-.1.05-.02.01-.03.03-.05.04-.03-.17-.11-.25-.31-.21-.16.03-.31-.07-.47-.1-.07-.02-.11-.08-.1-.16,0-.07,0-.14-.07-.18Z"/>
    <path class="cls-45" d="M6.34,15.2s.08-.01.11,0c.08.01.2.03.2.12,0,.1-.12.07-.19.08-.04,0-.07.02-.11.04,0-.08,0-.16-.01-.23Z"/>
    <path class="cls-45" d="M6.45,15.07c-.05.02-.1.05-.15.07,0-.12.09-.06.15-.07Z"/>
    <path class="cls-58" d="M2.09,9.74c.05.09-.01.19,0,.28-.11-.02-.22-.01-.33.04.05-.4-.27-.58-.49-.81.1.01.2.03.27.12.06.08.11.17.23.06.05-.04.1.02.12.07.04.1.11.18.2.24Z"/>
    <path class="cls-93" d="M.95,8.91c.16.05.35.04.48.21-.05.04-.1.08-.15.13-.12-.06-.25-.08-.37,0-.04-.06-.16-.03-.14-.15.02-.11.1-.15.19-.18Z"/>
    <path class="cls-153" d="M9.51,2.36c-.09-.01-.17-.03-.26-.04-.02-.08.09-.06.1-.13.06.04.13.09.16.17Z"/>
    <path class="cls-17" d="M10.99,4.17c-.03.09.05.22-.09.28-.07.03-.14,0-.19-.04-.05-.04-.07-.1-.05-.16.02-.08.09-.1.16-.1.05,0,.11,0,.16,0,0,0,.01.01.01.01Z"/>
    <path class="cls-114" d="M14.45,5.15s.11.02.13.08c0,0-.03.04-.04.04-.07,0-.08-.06-.09-.11,0,0,0,0,0,0Z"/>
    <path class="cls-25" d="M7.6,12.1s.04.05.06.07c.05.06.16.13.08.21-.08.08-.12-.05-.18-.09-.11-.06-.24-.14-.37-.1-.15.06-.27,0-.4-.03-.02.02-.04.03-.06.04-.32-.04-.36-.07-.45-.4-.01,0-.03,0-.04,0-.06-.09-.02-.15.07-.17.07-.02.09-.08.1-.14,0-.01.01-.03.02-.04q.23-.18.11-.44c.02-.09.08-.11.16-.1.1,0,.2-.02.3,0,.15.03.25.09.18.27-.03.06,0,.12.03.18,0,.01.02.03.02.04,0,.26.21.38.34.55.04.05.04.1.03.15Z"/>
    <path class="cls-132" d="M7.28,12.67c.14,0,.3-.1.44.12-.22-.06-.38-.02-.48.15-.2-.04-.41.04-.59-.09-.08-.03-.16-.04-.24,0-.07.04-.13,0-.17-.06-.03,0-.06-.01-.09-.02-.06-.12.1-.27-.04-.39-.02-.01.1-.08.16-.11.13-.03.26.05.4,0,.15.03.23.16.35.23.09.05.17.11.27.15Z"/>
    <path class="cls-47" d="M6.47,11.51c.04.05.14.07.11.15-.02.07-.1.06-.16.06-.07,0-.14.01-.18.08-.02,0-.03,0-.05,0-.13-.03-.27-.02-.38-.12-.12-.09-.08-.21-.05-.33.02-.04.06-.11,0-.11-.22-.03-.25-.2-.3-.36.04-.14.14-.15.25-.11.11.04.22.07.32.12.08.09.12.2.21.29.03.03.06.06.08.1.02.06.05.11.1.15.03.02.04.05.04.09Z"/>
    <path class="cls-101" d="M6.67,12.38c-.16.06-.29,0-.4-.11,0-.04.02-.1,0-.1-.19-.13-.11-.24.01-.36.17.1.24.33.47.35.06.11-.15.11-.08.22Z"/>
    <path class="cls-97" d="M5.84,11.61c.14.02.24.11.35.19-.13.04-.17.14-.18.26-.07.02-.14.05-.19.1-.02,0-.03,0-.05,0,0-.03,0-.06,0-.09-.12-.07.05-.16,0-.24-.01-.03-.02-.07-.04-.1-.02-.1.05-.11.12-.12Z"/>
    <path class="cls-118" d="M5.81,12.16c.02-.13.06-.19.19-.1-.02.12-.1.12-.19.1Z"/>
    <path class="cls-53" d="M6.18,13.16s.15,0,.11.09c-.04.08-.11.03-.17,0,.02-.03.04-.06.06-.09Z"/>
    <path class="cls-53" d="M6.02,12.99c.1-.02.16.02.17.12-.07-.03-.13-.06-.17-.12Z"/>
    <path class="cls-83" d="M10.44,6.2c.12.04.25.08.37.12,0,.02,0,.04-.02.04-.07.05-.22-.07-.21.09,0,.14.15.1.24.11.2.03.36-.13.56-.12.13,0,.22,0,.3.11.07.1.2.13.25.04.11-.19.24-.16.39-.12.02.05.04.1.06.15.04.19-.04.25-.27.23.03.01.07,0,.1.01.06.01.1-.04.15-.03.1.03.21.07.32.07.36.1.73.18,1.09.31.22-.07.41.02.6.1.07.03.15.07.13.16-.03.09-.08.16-.2.15-.26-.01-.51.05-.75.1-.06.04-.21-.08-.17.11-.01.09-.09.1-.15.12-.2-.05-.36-.14-.51-.29-.17-.17-.43-.14-.63-.24-.02,0-.06,0-.06.02-.17.29-.36.04-.53,0-.06,0-.13-.06-.08-.13.15-.25-.1-.22-.17-.2-.22.04-.29-.08-.33-.25,0-.1,0-.2-.12-.22-.26-.05-.34-.23-.34-.46Z"/>
    <path class="cls-99" d="M13.23,7.97s.07-.08.11-.12c-.03-.14.12-.09.16-.16,0-.07-.12-.13-.04-.2.06-.05.13.02.19.05.09.05.16.08.25,0,.07-.06.15-.01.22,0,.1.02.2.04.31-.05-.21-.13-.4-.21-.64-.14-.1-.2-.32-.22-.5-.28-.09-.03-.19-.06-.16-.17.03-.11.13-.14.24-.11.12.03.24.02.36.04.1.06.17.02.23-.07.08-.12.21-.15.35-.12.11.03.19.09.11.22-.11.16.01.17.11.16.14,0,.24.02.2.18-.04.16.12.12.18.17-.01.08-.08.09-.14.11-.09.03-.21.06-.21.15,0,.12.1.2.18.28.05.06.1.04.16-.02.11-.12.22-.09.31.03h0c-.05.05-.09.09,0,.14.05.02.1.04.14.07.05.03.11.07.08.14-.03.06-.1.03-.14.02-.1-.04-.21-.02-.32-.03-.13-.08-.25-.17-.42-.17-.12,0-.26-.06-.17-.24.02-.05.03-.1-.04-.11-.06-.01-.07.04-.09.08-.07.12-.06.27-.09.4-.02.09-.04.2-.15.2-.16,0-.36.09-.45-.06-.08-.12-.13-.16-.26-.15-.07,0-.14-.03-.12-.13.05-.03.09-.06.07-.13Z"/>
    <path class="cls-18" d="M10.41,8.02c-.08.09-.18.03-.27.01-.28-.07-.53.03-.78.11-.18-.12-.36-.15-.55-.03-.08.05-.14.04-.16-.05-.03-.2-.1-.32-.33-.22,0,0-.03,0-.04-.02-.01,0-.02-.02-.03-.05.31-.15.62-.23.96-.12.03.01.09.03.09.06.08.24.23.06.35.06.05,0,.07-.04.04-.08-.02-.04-.1-.08,0-.12.06-.02.15-.03.16.04.07.25.23.32.47.3.05,0,.07.05.09.09Z"/>
    <path class="cls-127" d="M7.52,8.2c-.17.15-.37.12-.5-.07-.06-.09-.2-.13-.19-.27.07-.02.15-.05.22-.07.15-.05.51.16.54.32,0,.03-.04.06-.06.09Z"/>
    <path class="cls-109" d="M9.25,5.08c.1.08.24.04.37.06.04,0,.08.02.08.06,0,.05-.04.06-.07.07-.17.06-.38,0-.53.15-.02.02-.08,0-.09-.05,0-.08,0-.17.05-.24.04-.06.1-.09.19-.06Z"/>
    <path class="cls-87" d="M6.53,7.63c.1-.1-.05-.26.1-.36.08-.06.15-.12.25-.1-.1.09-.18.19-.2.32-.02.09-.06.13-.15.15Z"/>
    <path class="cls-115" d="M9.47,9.94l.05-.04c.21-.05.42-.09.63-.14.12.06.34-.07.35.19-.03.05-.07.04-.12.04-.13,0-.21.01-.1.17.09.13-.02.22-.08.32-.07.04-.16.02-.21.08-.2.08-.41.09-.61.21-.19.12-.43-.01-.65,0-.11-.11-.31,0-.39-.18,0-.02,0-.05,0-.07.04-.07.11-.1.17-.15.11-.08.3.1.36-.15.03-.13.24-.17.35-.28.02-.01.04-.02.06-.02.06,0,.12.07.19.02Z"/>
    <path class="cls-16" d="M9.72,9.51c.06,0,.13-.01.19-.02,0,.02-.01.05-.03.06-.08.04.05.18-.07.18-.14,0-.07-.14-.09-.22Z"/>
    <path class="cls-16" d="M9.37,9.32c.06.17.27.06.35.19-.1,0-.19-.01-.29-.02-.17,0-.15-.08-.06-.17Z"/>
    <path class="cls-115" d="M9.6,9.62s-.05.01-.07.01c0,0-.03-.02-.03-.02.01-.01.02-.03.04-.04,0,0,.02.02.05.05Z"/>
    <path class="cls-16" d="M9.61,9.31c-.08.03-.16.02-.24.01.07-.1.16-.02.24-.01Z"/>
    <path class="cls-136" d="M10.15,10.42c.18-.27-.09-.22-.25-.3.19-.02.05-.26.26-.25.12,0,.24.02.34.09.04.02.09.04.13.07.04.08.09.11.18.07h0c.08.07-.02.12-.04.19-.08.02-.11-.05-.17-.07.06.02.09.11.17.07.1.11.25.11.36.19-.17.09-.83.06-.98-.05Z"/>
    <path class="cls-100" d="M10.8,10.09c-.08.04-.15.02-.18-.07.06.02.12.05.18.07Z"/>
    <path class="cls-51" d="M14.38,8.42c.21.06.42.13.63.19-.12-.04-.16.2-.23.1-.11-.15-.39-.03-.4-.29Z"/>
    <path class="cls-33" d="M12.57,11.48c.04.08.08.17.12.25.07.12.05.2-.1.22,0,.04-.02.08-.04.11-.09.15-.21.24-.4.2-.05-.01-.11-.02-.16-.02-.2-.15-.46-.09-.67-.21-.07-.01-.14-.02-.2-.05-.02-.01-.03-.03-.04-.06-.05-.12-.13-.18-.27-.21-.13-.03-.26-.08-.38-.16-.07-.05-.15-.08-.24-.06-.14.02-.2-.04-.2-.18.08-.25.23-.29.41-.11.08-.02.16-.03.2-.11.21-.07.36.08.55.13.08.04.16.09.25.12.06.02.14.03.15-.04.02-.1.05-.16.16-.11.09.05.27.04.21.23-.03.1.06.1.13.12.07.03.11.07.13.09-.02-.02-.07-.06-.13-.09-.03-.14.01-.21.15-.13.09.05.17.1.28.05.03,0,.06,0,.09.01Z"/>
    <path class="cls-138" d="M10.4,11.21c-.16-.02-.33-.05-.35.18-.01.02-.03.03-.05.04-.13,0-.2-.09-.2-.2,0-.11-.04-.23,0-.36-.13.12-.25.24-.41.06-.05-.06-.11.02-.17.02-.15.03-.27-.06-.41-.1-.1-.02-.12-.12-.06-.22.17,0,.31.14.49.06.08-.04.18-.03.23-.13.04-.09.12-.07.2-.06.09.01.18.02.27-.02.14,0,.28,0,.35.15-.16.15,0,.26.07.34.08.09.07.15.03.24Z"/>
    <path class="cls-90" d="M10.3,10.63c-.14.01-.26-.04-.35-.15.04-.11.11-.09.2-.06.33-.02.65,0,.98.05.07.03.15.05.19.14-.11.05-.22.08-.34.01-.14-.08-.29-.07-.44,0-.03.02-.06.02-.09,0-.05,0-.1.01-.15.02Z"/>
    <path class="cls-103" d="M10.45,10.61s.06,0,.09,0c.16.03.35-.05.47.12.05.06.1.12-.03.14-.21.03-.36-.12-.55-.18,0,0,.01-.05.02-.08Z"/>
    <path class="cls-10" d="M11.15,11.22c-.21.08-.38-.04-.55-.13-.04-.03-.06-.07,0-.1.11-.06.49.11.55.23Z"/>
    <path class="cls-51" d="M12.32,10.65c0,.14.1.17.21.14.07-.02.2,0,.17-.16-.02-.11.07-.1.11-.06.14.14.3.09.45.08-.09.07-.18.12-.3.15-.18.05-.4.03-.52.23-.03.05-.15.09-.15-.02,0-.17-.08-.19-.21-.19-.04,0-.1,0-.1-.07,0-.05.05-.05.09-.06.08-.02.17-.03.25-.04Z"/>
    <path class="cls-141" d="M12.01,12.1c.06,0,.12.02.18.03.03.03.07.04.1.04.14,0,.29-.04.35.11-.07-.1-.23-.16-.23-.34.06,0,.12.02.18.02.23.16.49.24.77.23.13,0,.2.08.31.12.01.18.1.28.29.28-.02.13-.09.17-.21.12-.13-.05-.25-.11-.38-.15-.07-.02-.16-.02-.2.06-.06.1.04.11.09.14.05.04.04.09.04.15,0,0-.01.02-.02.03-.41.02-.84.08-1.22-.09-.19-.09-.38-.14-.57-.22-.18-.07-.25-.28-.42-.38-.08-.05-.05-.19.08-.23.06-.01.12-.03.18-.03.15.01.29.03.43.11.06.03.16.04.24.01Z"/>
    <path class="cls-51" d="M14.25,9.9c-.06.06-.11.13-.08.22-.13-.13-.05-.18.08-.22Z"/>
    <path class="cls-141" d="M14.37,13.86c-.1-.05-.23-.06-.29-.18-.02-.04-.05-.06-.08,0-.05.08-.1.06-.14,0-.05-.06-.02-.11.03-.16.12-.1.07-.13-.05-.14-.09,0-.17-.03-.24-.07-.17-.09-.34-.13-.53-.05-.13.06-.19,0-.14-.14-.04-.04-.15-.05-.1-.15.04-.08.11-.06.17-.05.2.02.4.1.6.14q-.26-.05-.3-.16h0c.25-.15.69.04.9.24.24.23.15.47.18.71Z"/>
    <path class="cls-105" d="M16.43,14.82c-.34,0-.61-.14-.78-.45.04.02.09.04.13.07.23.13.46.25.69.38-.02,0-.03,0-.05,0Z"/>
    <path class="cls-139" d="M14.45,13.03c-.06,0-.11,0-.1.08-.02,0-.03,0-.05,0-.02-.18.07-.12.15-.07Z"/>
    <path class="cls-110" d="M7.06,13.2c.01.09-.04.12-.11.12-.16-.02-.31-.05-.47-.07.19-.01.35-.44.58-.05Z"/>
    <path class="cls-4" d="M6.3,13.61c.12,0,.23-.06.34.01.05.03.17,0,.12.12-.04.08-.12.09-.2.05-.09-.05-.17-.12-.25-.18Z"/>
    <path class="cls-53" d="M6.23,12.79c.14.03.3-.11.41.06-.08.03-.16.04-.24.08-.15.07-.2.01-.18-.13Z"/>
    <path class="cls-21" d="M9.26,14.79c-.09-.01-.18-.02-.27-.04-.05-.01-.15-.01-.12-.09.02-.08.11-.04.16-.02.08.04.24-.02.24.15,0,0,0,0,0,0Z"/>
    <path class="cls-45" d="M7.49,14.44s.05.02.04.04c-.02.03-.04.06-.07.08-.02.01-.04-.01-.03-.04,0-.04.03-.07.07-.08Z"/>
    <path class="cls-135" d="M7.6,12.1c-.16-.1-.25-.32-.5-.24-.04.01-.1-.04-.12-.1-.02-.07.02-.12.08-.14.16-.06.13-.15.04-.24-.03-.03-.09-.09-.08-.1.18-.37-.17-.21-.28-.28-.07-.08-.08-.18,0-.25.14-.13.13-.3.14-.46.02-.03.04-.06.08-.07.23.02.41.15.62.23.23.09.16.29.17.45.04.1.12.21,0,.3-.02.01-.04.02-.06.02-.06,0-.11-.07-.18,0,.12.07.25.06.37.09.1.05.21.07.32.1,0,0,.02,0,.02,0,0-.01,0,0-.01-.02-.04-.06-.04-.13,0-.19.08-.1.17-.11.28-.04.14.1.3.1.47.11.18.01.36,0,.54,0,.02,0,.04.02.06.04.08.12.21.2.27.34-.03.11-.12.03-.17.07-.12.05-.25.03-.37.01-.16-.03-.26-.05-.37.13-.1.15-.22.03-.27-.12-.14.21-.08.33.13.41.15.06.29.19.41.3.06.06.01.13-.07.11-.15-.03-.21.07-.27.16-.02,0-.03,0-.05,0,.02-.08-.21-.18.03-.25.02,0-.05-.16-.15-.16-.18,0-.34-.11-.52-.1-.05,0-.11,0-.12-.05-.08-.32-.27-.09-.41-.09Z"/>
    <path class="cls-54" d="M6.67,12.38c-.14-.13,0-.17.08-.22.02,0,.03,0,.05,0,.1.23.4.26.49.49-.17.05-.34.12-.44-.13-.02-.04-.08-.14-.18-.15Z"/>
    <path class="cls-65" d="M7.56,13.31c.02.06.09.13,0,.18-.1.06-.16-.05-.25-.08.07-.07.15-.1.25-.1Z"/>
    <path class="cls-21" d="M13.29,12.9c.11.07.22.14.36.11.1-.02.17.05.24.12-.21-.03-.41-.06-.62-.09-.09-.01-.18-.04-.27-.04-.1,0-.12.04-.07.13-.15-.02-.31-.05-.46-.02-.15-.05-.29-.09-.45.01-.16.1-.36.03-.54,0-.2-.03-.4-.06-.58-.22-.15-.13-.38-.15-.58-.06,0-.22-.2-.13-.3-.19.04-.09.03-.18.05-.27.03-.14-.09-.34.14-.42.01,0,0-.08-.01-.13-.06-.01-.09-.08-.16-.1-.2-.07-.35-.23-.53-.33-.01-.11-.16-.1-.17-.21.01-.08,0-.16-.08-.21-.01-.03-.01-.06,0-.09.01-.16.08-.21.19-.07.08.09.1.12.18-.02.05-.08.2-.1.28-.21.03-.04.11.03.14.08s.04.1-.03.13c-.11.06-.16.13-.03.22.04.03.05.05,0,.08-.13.1-.06.18.03.26.19.13.42.15.62.26.17.09.37.11.52.24h0c.04.05.13.02.16.09,0,0,0,.02.01.03.02.15-.13.06-.18.14.08.09.17.13.29.14.14.02.15.03.06.14-.06.07,0,.08.04.09.07.02.15.02.23.04.12.03.28-.07.35.16.02.08.29.12.44.11.14,0,.29.03.45-.03.07-.03.2.07.31.12Z"/>
    <path class="cls-26" d="M10.1,11.68c.02.05.05.1.07.15-.18-.04-.37-.01-.55-.08.05-.02.1-.05.15-.07.11-.11.22-.03.33,0Z"/>
    <path class="cls-21" d="M9.66,12.46s-.05-.07-.08-.1c.1-.11.18.03.18.06.02.09-.06.04-.1.05Z"/>
    <path class="cls-43" d="M6.03,10.98c-.12-.01-.24,0-.35-.09-.05-.04-.11-.05-.16.02,0,.09,0,.17-.1.21-.1.04-.15-.04-.21-.1-.1-.12-.22-.23-.09-.39.06-.12.21-.07.28-.15,0-.01.02-.04.01-.04-.17-.11-.17-.28-.2-.46-.02-.15-.07-.27.09-.35.16-.09.27-.01.37.1-.06-.1-.2-.12-.28-.22-.06-.07-.08-.15-.02-.23.06-.08.14-.09.2,0,.22.02.32.15.37.36.03.13.11.16.26.12.21-.06.45-.07.67-.09.01.03.03.04.05,0,.03,0,.06,0,.09.01.14.04.29.07.39.18.08.08.16.04.24.02.05,0,.09.02.13.05.05.03.1.07.11.13.01.02.02.04.03.07.03.06.02.12-.02.17-.19.02-.39.02-.55-.11-.13-.1-.25-.15-.41-.08-.02,0-.04,0-.06,0-.2,0-.28.21-.46.27-.07.02-.06.13.02.16.19.07.18.2.14.35,0,.02-.02.04-.03.06-.16.17-.34.14-.52.03Z"/>
    <path class="cls-92" d="M5.58,9.27c-.15.01-.17.09-.06.17.19.13.25.33.33.54-.12.02-.18-.04-.21-.13-.05-.13-.13-.2-.26-.13-.14.07-.03.15.02.22.03.05.04.11.01.15-.06.12-.02.18.1.21.06.01.13.03.14.1,0,.09-.1.08-.15.11-.37-.05-.76-.04-1.02-.36-.07-.08-.13-.12-.23-.12-.09,0-.18-.02-.27-.04-.07-.01-.15-.02-.14-.11,0-.08.07-.1.14-.13.12-.05.27-.05.36-.18.08-.07.17-.12.28-.15.36-.1.42-.23.3-.58-.02-.06-.03-.13-.06-.19h0c.07-.27.28-.1.41-.1.11,0,.11.14.04.25-.05.1.07.09.12.11.22.06.26.14.17.36Z"/>
    <path class="cls-81" d="M7.72,10.01s-.05-.04-.08-.06c-.21-.07-.4-.17-.56-.32,0-.03,0-.06.01-.09.02-.01.03-.01.04,0,.15.07.27.09.28-.13,0-.04.03-.07.07-.08.18-.04.12-.13,0-.24.15-.01.21.04.26.12-.05.16.05.26.14.36.08.08.28.05.2.26-.01.03.06.03.09.01.04-.02.07-.06.11-.08.14-.1.26-.14.33.08.02.05.06.09.09.13-.13.17-.29.23-.49.15-.07-.03-.13-.02-.19.02-.07.05-.12.03-.18-.02-.05-.02-.11-.05-.12-.11Z"/>
    <path class="cls-117" d="M7.13,9.55s-.03,0-.04,0c-.16-.04-.31-.08-.47-.12-.11-.02-.25-.11-.28.11,0,.06-.1.05-.16.04-.14-.04-.15-.16-.18-.27-.02-.06-.01-.1.06-.12.16-.04.27-.12.16-.31-.04-.07.02-.14.08-.17.07-.05.13.02.14.07.04.3.25.25.46.22-.02.04-.03.06-.04.08-.07.07-.24.07-.21.17.04.12.19.16.33.16.11,0,.22-.01.16.16Z"/>
    <path class="cls-57" d="M7.08,9.63c.2.08.42.14.56.32-.28.07-.43-.16-.62-.28l.05-.04Z"/>
    <path class="cls-87" d="M6.13,8.13c-.07.09-.15.08-.23.01-.02-.02-.04-.06,0-.08.09-.05.17-.02.24.06h0Z"/>
    <path class="cls-57" d="M6.93,9.66s0,.09-.05.07c-.06-.02,0-.05,0-.08.02,0,.03,0,.05,0Z"/>
    <path class="cls-121" d="M4.36,9.61c.06.1.05.15-.08.17-.11.02-.21.04-.32.06-.04,0-.07.03-.03.08.01.02.02.04.01.06-.04.08-.1.07-.17.07-.09-.06-.06-.15-.03-.22.03-.07.06-.12,0-.18-.05-.05-.11-.11-.16-.16.06-.07.12-.12.21-.04.09.07.2.07.3.07.03,0,.06,0,.09,0,.05.02.12.02.17.06,0,0,0,.02.01.03Z"/>
    <path class="cls-143" d="M3.74,9.65s.1-.06.15-.02c.05.05,0,.1-.02.14-.05.08-.08.16-.09.25-.04.02-.09.02-.13,0-.03-.03-.06-.02-.09-.02-.05,0-.1-.01-.15-.03-.07-.03-.16-.04-.17-.14,0-.03,0-.06.01-.09.04-.03.07-.05.11-.08.02.02.03.05.03.06,0-.02,0-.04-.03-.06.07-.08.15-.05.23,0,.06.03.12.08.15-.03Z"/>
    <path class="cls-58" d="M2.65,9.73c-.15-.09-.41.05-.48-.21.13,0,.25,0,.38,0,.04.07.07.14.11.21Z"/>
    <path class="cls-63" d="M4.13,9.57l-.04-.05c-.15-.05-.21-.24-.39-.26-.06,0-.06-.11-.06-.18,0-.09.07-.05.12-.05.15-.01.3-.03.45-.05.19.1.24-.13.36-.18.07-.03.16-.11.25-.15.14.05.22.16.23.31,0,0,0,.02,0,.02-.04.14.21.27.13.29-.21.06-.35.24-.57.28-.09.01-.18.04-.27.06h0c-.07-.04-.16,0-.23-.04Z"/>
    <path class="cls-99" d="M12.67,7c-.11.02-.22-.02-.32-.05-.04-.2.1-.31.2-.44.09-.16-.02-.2-.14-.2-.3-.02-.54-.24-.85-.26.28-.14.55.03.84.01-.03-.11-.1-.09-.17-.1-.05-.01-.11-.02-.1-.1,0-.05.05-.08.1-.09.14,0,.28-.02.41,0,.16.01.23.16.21.28-.02.18.07.22.2.25q-.2.25-.04.56c0,.13-.08.14-.17.11-.07-.03-.13-.04-.18.03Z"/>
    <path class="cls-11" d="M12.67,7c-.07-.14.02-.16.12-.15.07,0,.14.05.22.02.06-.05.11-.11.17-.16.02-.06.08-.1.12-.07.11.06.24.05.33.14.03.02.06.04.09.06-.14.14-.34,0-.5.09.06.1.15.13.24.12.26-.04.35.08.33.32-.16-.06-.31-.13-.47-.19-.12-.04-.26-.11-.36-.04-.18.12-.23,0-.29-.12Z"/>
    <path class="cls-99" d="M13.64,6.76c-.15,0-.29-.12-.46-.07-.03-.07-.06-.14-.09-.21.07-.08.16,0,.24-.05.08-.06.21-.11.26.01.05.16-.15.03-.19.14.08.09.17.07.25,0,.05-.04.09-.1.15-.14.08-.06.18-.08.25,0,.06.09-.04.13-.1.18-.09.08-.21.08-.31.14Z"/>
    <path class="cls-99" d="M15.2,7.93c.11-.21.18-.02.3.02-.13.06-.21-.02-.3-.02h0Z"/>
    <path class="cls-113" d="M12.55,6.51s.09.1.04.13c-.13.08-.14.23-.25.31-.17.02-.34.06-.49-.03-.05-.03-.11-.07-.09-.14.02-.09.1-.05.15-.04.05,0,.09.02.13.03.13.01.29.07.21-.17-.02-.05.04-.08.07-.11.08.01.15.02.23.03Z"/>
    <path class="cls-122" d="M10.83,6.11c.03-.12-.18-.27-.03-.32.15-.06.31.06.43.2-.16-.05-.24.16-.39.13Z"/>
    <path class="cls-99" d="M13.53,5.34s.1.04.1.11c-.09.01-.08-.06-.1-.11h0Z"/>
    <path class="cls-153" d="M15.72,6.51c.09.02.2.02.19.11,0,.12-.11.07-.18.07-.08,0-.15,0-.23.01-.07,0-.13,0-.14-.08-.02-.09.06-.09.12-.1.08,0,.17-.01.23-.02Z"/>
    <path class="cls-14" d="M9.28,9.96c0,.11-.01.17-.15.2-.13.03-.31.11-.1.29.04.03.06.08.03.12-.03.04-.07,0-.1-.02-.18-.18-.37-.12-.56-.01-.16.03-.26-.06-.34-.18-.08-.11,0-.26.11-.22.22.07.38,0,.55-.12.03,0,.06,0,.09.01h0c.19-.09.11-.15-.02-.2,0,0,0-.01,0-.02,0,0,0-.01.01-.02.06-.05.14-.01.2-.06.16.07.32.14.48.21-.06.06-.12.06-.19.02-.02-.02-.04-.02-.06-.02.02,0,.04,0,.06.02Z"/>
    <path class="cls-115" d="M8.71,10.02q-.03.37-.42.25s-.09-.02-.15-.04c.03.17.19.2.26.31h0c-.16.17-.53.08-.59-.14-.02-.06.02-.1.07-.12,0-.05-.02-.1-.03-.14.17-.09.31-.23.54-.1.07.04.22-.03.33-.06,0,.02,0,.03,0,.05Z"/>
    <path class="cls-115" d="M8.98,9.73c-.05.07-.12.07-.2.06.05-.06.12-.07.2-.06Z"/>
    <path class="cls-28" d="M14.58,14.36c.08-.05.08-.23.22-.2.12.03.18.13.19.26-.17-.08-.26.03-.33.15-.04.06-.03.18-.14.12-.1-.06-.03-.13.03-.18.04-.04.04-.1.03-.15Z"/>
    <path class="cls-28" d="M15.03,14.47c.14.06.28-.1.42.01-.14,0-.29.2-.42-.01Z"/>
    <path class="cls-24" d="M5.84,11.61s-.08.08-.12.12c-.19-.1-.33-.28-.56-.32-.04-.09-.1-.15-.22-.13-.18.03-.31-.12-.46-.16-.24-.08-.35-.23-.44-.44-.03-.07-.12-.09-.2-.03-.09.07-.17.05-.24-.03-.03-.04-.09-.08-.07-.13.02-.07.09-.05.14-.05.14,0,.23-.07.3-.18.05-.1.13-.09.21-.05.07.04.14.05.22.03.18.01.26.19.42.24.27.03.3.29.38.46.1.22.27.25.44.29.1.02.18.02.18.15.05.03.1.06.15.1,0,.1-.16.02-.14.14Z"/>
    <path class="cls-88" d="M4.4,10.32c-.16.11-.28-.04-.41-.06-.16-.17-.37-.19-.58-.23,0-.01-.01-.02,0-.03,0,0,.01-.01.01-.01.06,0,.12.02.18.03.02-.02.03-.02.05,0,.05-.04.1-.03.14.02.05-.02.1-.05.15-.07.15-.03.28.03.41.09.11.05.17.15.06.27Z"/>
    <path class="cls-147" d="M3.17,10.34s.12.02.11.09c-.02.07-.1.09-.17.08-.05,0-.09-.04-.08-.09.01-.07.07-.09.14-.08Z"/>
    <path class="cls-121" d="M3.42,9.98s0,.03,0,.04c-.05,0-.09-.01-.14-.02-.04.02-.08.02-.09-.02-.01-.04.02-.06.06-.08,0-.01,0-.03.01-.04.06.04.11.08.17.12Z"/>
    <path class="cls-143" d="M3.24,9.91s0,.08.04.1c-.03.03-.08.06-.11,0-.03-.06.02-.09.07-.11Z"/>
    <path class="cls-24" d="M5.77,11.83c.04.08,0,.16,0,.24-.1-.08-.03-.16,0-.24Z"/>
    <path class="cls-141" d="M6.27,11.3s-.06-.04-.09-.06c-.06-.11,0-.16.1-.16.09,0,.18-.02.27-.02.01,0,.02,0,.03,0,.13-.03.24,0,.28.13.04.13-.06.19-.16.24-.07.04-.15.06-.23.09-.03,0-.06-.01-.09-.02-.11-.03-.09-.13-.11-.2Z"/>
    <path class="cls-8" d="M6.51,10.91s0-.03,0-.04c.17-.13.01-.31.08-.45.02-.03.05-.05.08-.07.08-.04.16-.12.26-.03.07.16.04.31-.08.43-.07.07-.1.15-.11.24-.06,0-.12.02-.15.07h0c-.12,0-.1-.08-.07-.15Z"/>
    <path class="cls-37" d="M5.83,11.37s-.1-.04-.13-.03c-.18.09-.3,0-.38-.14-.1-.17-.27-.29-.32-.49-.03-.12-.17-.03-.23-.11.1-.15.25-.2.39-.13.06.03.09.08.04.14-.09.17.04.28.13.37.08.08.12-.08.2-.09.14.09.22.25.38.31.05.02.11.06.07.12-.03.06-.09.03-.15.03Z"/>
    <path class="cls-25" d="M6.51,10.91c.02.05.05.1.07.15-.07.21-.28.09-.4.18-.16-.02-.12-.16-.15-.26.16-.02.32-.05.48-.07Z"/>
    <path class="cls-25" d="M6.27,11.3c.04.07.07.14.11.2-.07,0-.15.07-.19,0-.04-.08.06-.13.08-.2Z"/>
    <path class="cls-77" d="M13.5,7.69c-.02.09-.09.12-.16.16-.1-.04-.28.01-.25-.15.03-.13.18-.05.28-.04.05,0,.09.02.13.02Z"/>
    <path class="cls-64" d="M13.9,7.74c.06-.12.12-.17.21-.13.04.01.06.05.04.09-.06.08-.14.06-.25.04Z"/>
    <path class="cls-57" d="M7.87,10.27c.1.23.22.3.52.27.09.14.24.06.36.1.11.18.33.15.48.26.01.02.03.04.04.05,0,.07.02.14-.04.19-.12.05-.24.04-.36.13-.1.08-.48-.02-.54-.17-.07-.18-.21-.19-.33-.26-.27-.17-.27-.16-.39-.33-.12-.12-.28-.18-.44-.23-.15-.05-.24-.13-.25-.28.18-.02.33.02.48.14.13.1.33.02.46.14Z"/>
    <path class="cls-100" d="M10.79,10.28s-.06.04-.07.04c-.11-.04-.24-.05-.32-.16,0-.01,0-.06.01-.06.15,0,.24.12.37.18Z"/>
    <path class="cls-23" d="M11.15,11.88c-.28-.06-.57-.1-.82-.27-.11-.07-.3-.03-.33-.23h.05c.36-.03.63.23.96.3.1.02.12.11.14.19Z"/>
    <path class="cls-100" d="M12.41,11.93c.11.17.26.27.45.32.05.01.15-.01.13.08-.01.07-.1.07-.16.06-.12-.03-.25-.02-.36-.12-.07-.07-.19-.09-.28-.14.07,0,.13.03.2-.02.04-.06-.23-.15.02-.18Z"/>
    <path class="cls-100" d="M12.03,11.53c.18.03.32.09.45.19-.26.1-.28.09-.45-.19Z"/>
    <path class="cls-100" d="M12.01,12.1c-.12.07-.24.09-.36-.02-.09-.08-.22-.06-.33-.09h0s-.02-.02-.01-.03c0,0,.01-.01.02-.01.14-.1.23.05.35.06.11.01.22.06.33.09Z"/>
    <path class="cls-100" d="M12.04,11.74s-.02.01-.04.02c0-.01-.01-.03-.01-.04,0,0,.02-.01.03-.02,0,.01.01.03.02.04Z"/>
    <path class="cls-141" d="M11.33,11.95s0,.03,0,.05c-.06-.04-.11-.08-.17-.12.07,0,.13.03.18.07Z"/>
    <path class="cls-69" d="M7.66,10.47c.17.23.48.35.74.28.06-.02.09,0,.1.05.01.05.07.13-.02.16-.15.05-.05.08,0,.12.17.12.21.12.33-.03.04-.05.1-.04.15-.03.08.02.16.04.25.06.1-.06.14-.01.17.08.03.09.34.05.11.25-.37.16-.71.04-1.05-.1-.07-.03-.12-.06-.19-.04-.3,0-.39-.07-.37-.3-.06,0-.11.02-.16,0,0,0-.02,0-.03,0-.08-.05-.22-.07-.05-.2.08-.07,0-.15-.07-.19-.02-.11.02-.13.11-.08Z"/>
    <path class="cls-91" d="M7.98,10.8s.08.01.11.03c.06.02.12.06.1.13-.02.07-.08.05-.13.05-.04,0-.08-.01-.11.05.09.08.22.1.29.2,0,.05-.02.09-.02.14-.12.06-.25,0-.37,0-.11-.01-.23-.03-.34-.01-.12.02-.29.02-.31-.12-.03-.19.16-.13.27-.16.09-.03.16.02.23.08,0,.01.01.02.02.04,0-.01-.01-.03-.02-.04.04-.08-.07-.15-.01-.24h0c.07-.12.21-.09.3-.14Z"/>
    <path class="cls-57" d="M6.93,10.31c-.07.04-.14.07-.2.11-.02-.02-.04-.04-.07-.01-.01.02,0,.04.01.05-.04.14.14.36-.15.4.02-.12,0-.21-.13-.26-.1-.04-.16-.12-.15-.23.01-.1.09-.13.19-.13.03,0,.08-.02.08-.03-.02-.32.25-.16.38-.23,0,.09.08.12.13.17.07.06.04.1-.03.13-.02.01-.04.03-.05.04Z"/>
    <path class="cls-8" d="M6.98,10.27c.04-.12-.18-.16-.1-.29.01,0,.03,0,.04,0,.11.12.24.21.41.23.15.02.25.12.31.25-.04.03-.07.05-.11.08-.26.05-.36-.22-.57-.27Z"/>
    <path class="cls-69" d="M8.27,11.77c-.11.02-.2-.03-.26.06-.06.07-.13.07-.2,0-.04-.05-.13-.08-.1-.17.03-.09.12-.11.21-.12.16-.01.25.09.35.23Z"/>
    <path class="cls-101" d="M10.1,11.68c-.11-.02-.22-.03-.33,0-.19,0-.22-.16-.29-.28.28-.07.41.19.61.28Z"/>
    <path class="cls-69" d="M7.85,11.39c.12-.06.25-.04.37,0,.13.02.27.05.33.21-.21-.14-.49-.08-.7-.22Z"/>
    <path class="cls-138" d="M9.38,11.15c-.06-.03-.12-.05-.17-.08-.01-.06,0-.11.07-.13.06.06.22.06.11.21Z"/>
    <path class="cls-143" d="M5.2,10.62c-.14-.15-.28-.03-.43-.02-.15-.06-.24-.21-.38-.29-.06-.24-.24-.33-.47-.36,0-.01,0-.03,0-.04.14.01.27.03.41.04.05,0,.11,0,.15.05.17.25.43.31.7.38.1.03.2.08.29.12.08.03.14.08.07.17-.06.07-.12.04-.17-.02-.05-.06-.12-.06-.19-.05Z"/>
    <path class="cls-115" d="M7.58,10.07s-.03,0-.04,0c-.02,0-.02-.02,0-.03,0,0,.02,0,.02,0,0,0,.01.02.02.03Z"/>
    <path class="cls-115" d="M7.72,10.01s.08.07.12.11c-.08.01-.12-.04-.12-.11Z"/>
    <path class="cls-92" d="M4.13,9.57c.08-.04.16-.03.23.04-.08.04-.16.06-.23-.04Z"/>
    <path class="cls-121" d="M3.64,10.01h-.05s-.06-.08-.04-.13c0-.01.04-.02.05-.02.05.04.03.1.03.15Z"/>
    <path class="cls-121" d="M3.36,9.69s.05.03.04.07c0,0-.01,0-.02,0,0-.03-.02-.05-.02-.08h0Z"/>
    <path class="cls-115" d="M9.28,9.96s-.1.06-.14,0c0,0,0-.05.01-.06.06-.04.1.01.13.05h0Z"/>
    <path class="cls-115" d="M8.8,10.03s.08.02.08.06c0,.04-.04.05-.07.03-.05-.02-.03-.06-.01-.1h0Z"/>
    <path class="cls-43" d="M6.67,10.46q-.15.04-.31-.06c.17-.15.26-.15.36.02-.02.01-.03.03-.05.04Z"/>
    <path class="cls-135" d="M7.98,10.8c-.08.1-.21.08-.3.14.06-.13.18-.15.3-.14Z"/>
    <path class="cls-44" d="M7.69,11.18c.05.02.13.02.12.1,0,.06-.07.05-.11.03-.1-.04-.04-.09,0-.14h0Z"/>
  </g>
</svg>